<?xml version="1.0" encoding="utf-8" standalone="no"?>
<!DOCTYPE svg PUBLIC "-//W3C//DTD SVG 1.1//EN"
  "http://www.w3.org/Graphics/SVG/1.1/DTD/svg11.dtd">
<svg xmlns:xlink="http://www.w3.org/1999/xlink" width="504pt" height="316.8pt" viewBox="0 0 504 316.8" xmlns="http://www.w3.org/2000/svg" version="1.1">
 <metadata>
  <rdf:RDF xmlns:dc="http://purl.org/dc/elements/1.1/" xmlns:cc="http://creativecommons.org/ns#" xmlns:rdf="http://www.w3.org/1999/02/22-rdf-syntax-ns#">
   <cc:Work>
    <dc:type rdf:resource="http://purl.org/dc/dcmitype/StillImage"/>
    <dc:date>2026-10-02T05:40:32.595656</dc:date>
    <dc:format>image/svg+xml</dc:format>
    <dc:creator>
     <cc:Agent>
      <dc:title>Matplotlib v3.10.1+dfsg1, https://matplotlib.org/</dc:title>
     </cc:Agent>
    </dc:creator>
   </cc:Work>
  </rdf:RDF>
 </metadata>
 <defs>
  <style type="text/css">*{stroke-linejoin: round; stroke-linecap: butt}</style>
 </defs>
 <g id="figure_1">
  <g id="patch_1">
   <path d="M 0 316.8 
L 504 316.8 
L 504 0 
L 0 0 
L 0 316.8 
z
" style="fill: none"/>
  </g>
  <g id="axes_1">
   <g id="patch_2">
    <path d="M 38.27 277.256 
L 465.75 277.256 
L 465.75 44.88 
L 38.27 44.88 
L 38.27 277.256 
z
" style="fill: none"/>
   </g>
   <g id="matplotlib.axis_1">
    <g id="xtick_1">
     <g id="line2d_1">
      <defs>
       <path id="m5171f65f8c" d="M 0 0 
L 0 3.5 
" style="stroke: #52514e; stroke-width: 0.8"/>
      </defs>
      <g>
       <use xlink:href="#m5171f65f8c" x="140.976234" y="277.256" style="fill: #52514e; stroke: #52514e; stroke-width: 0.8"/>
      </g>
     </g>
     <g id="text_1">
      <text style="font-size: 10px; font-family: 'Helvetica Neue', 'Helvetica', 'Arial', 'DejaVu Sans'; fill: #52514e" transform="translate(101.705921 291.854438)">Library defaults</text>
      <text style="font-size: 10px; font-family: 'Helvetica Neue', 'Helvetica', 'Arial', 'DejaVu Sans'; fill: #52514e" transform="translate(86.058265 303.05225)">(20260929T115831Z)</text>
     </g>
    </g>
    <g id="xtick_2">
     <g id="line2d_2">
      <g>
       <use xlink:href="#m5171f65f8c" x="363.043766" y="277.256" style="fill: #52514e; stroke: #52514e; stroke-width: 0.8"/>
      </g>
     </g>
     <g id="text_2">
      <text style="font-size: 10px; font-family: 'Helvetica Neue', 'Helvetica', 'Arial', 'DejaVu Sans'; fill: #52514e" transform="translate(327.298454 291.854438)">Parity settings</text>
      <text style="font-size: 10px; font-family: 'Helvetica Neue', 'Helvetica', 'Arial', 'DejaVu Sans'; fill: #52514e" transform="translate(308.125797 303.05225)">(20260930T124428Z)</text>
     </g>
    </g>
   </g>
   <g id="matplotlib.axis_2">
    <g id="ytick_1">
     <g id="line2d_3">
      <path d="M 38.27 277.256 
L 465.75 277.256 
" clip-path="url(#pa7d14e4c99)" style="fill: none; stroke: #d6d5d0; stroke-width: 0.6; stroke-linecap: square"/>
     </g>
     <g id="line2d_4">
      <defs>
       <path id="mc5ff12648c" d="M 0 0 
L -3.5 0 
" style="stroke: #52514e; stroke-width: 0.8"/>
      </defs>
      <g>
       <use xlink:href="#mc5ff12648c" x="38.27" y="277.256" style="fill: #52514e; stroke: #52514e; stroke-width: 0.8"/>
      </g>
     </g>
     <g id="text_3">
      <text style="font-size: 10px; font-family: 'Helvetica Neue', 'Helvetica', 'Arial', 'DejaVu Sans'; text-anchor: end; fill: #52514e" x="31.27" y="281.055219" transform="rotate(-0 31.27 281.055219)">0</text>
     </g>
    </g>
    <g id="ytick_2">
     <g id="line2d_5">
      <path d="M 38.27 233.046613 
L 465.75 233.046613 
" clip-path="url(#pa7d14e4c99)" style="fill: none; stroke: #d6d5d0; stroke-width: 0.6; stroke-linecap: square"/>
     </g>
     <g id="line2d_6">
      <g>
       <use xlink:href="#mc5ff12648c" x="38.27" y="233.046613" style="fill: #52514e; stroke: #52514e; stroke-width: 0.8"/>
      </g>
     </g>
     <g id="text_4">
      <text style="font-size: 10px; font-family: 'Helvetica Neue', 'Helvetica', 'Arial', 'DejaVu Sans'; text-anchor: end; fill: #52514e" x="31.27" y="236.845832" transform="rotate(-0 31.27 236.845832)">1</text>
     </g>
    </g>
    <g id="ytick_3">
     <g id="line2d_7">
      <path d="M 38.27 188.837226 
L 465.75 188.837226 
" clip-path="url(#pa7d14e4c99)" style="fill: none; stroke: #d6d5d0; stroke-width: 0.6; stroke-linecap: square"/>
     </g>
     <g id="line2d_8">
      <g>
       <use xlink:href="#mc5ff12648c" x="38.27" y="188.837226" style="fill: #52514e; stroke: #52514e; stroke-width: 0.8"/>
      </g>
     </g>
     <g id="text_5">
      <text style="font-size: 10px; font-family: 'Helvetica Neue', 'Helvetica', 'Arial', 'DejaVu Sans'; text-anchor: end; fill: #52514e" x="31.27" y="192.636445" transform="rotate(-0 31.27 192.636445)">2</text>
     </g>
    </g>
    <g id="ytick_4">
     <g id="line2d_9">
      <path d="M 38.27 144.627839 
L 465.75 144.627839 
" clip-path="url(#pa7d14e4c99)" style="fill: none; stroke: #d6d5d0; stroke-width: 0.6; stroke-linecap: square"/>
     </g>
     <g id="line2d_10">
      <g>
       <use xlink:href="#mc5ff12648c" x="38.27" y="144.627839" style="fill: #52514e; stroke: #52514e; stroke-width: 0.8"/>
      </g>
     </g>
     <g id="text_6">
      <text style="font-size: 10px; font-family: 'Helvetica Neue', 'Helvetica', 'Arial', 'DejaVu Sans'; text-anchor: end; fill: #52514e" x="31.27" y="148.427058" transform="rotate(-0 31.27 148.427058)">3</text>
     </g>
    </g>
    <g id="ytick_5">
     <g id="line2d_11">
      <path d="M 38.27 100.418452 
L 465.75 100.418452 
" clip-path="url(#pa7d14e4c99)" style="fill: none; stroke: #d6d5d0; stroke-width: 0.6; stroke-linecap: square"/>
     </g>
     <g id="line2d_12">
      <g>
       <use xlink:href="#mc5ff12648c" x="38.27" y="100.418452" style="fill: #52514e; stroke: #52514e; stroke-width: 0.8"/>
      </g>
     </g>
     <g id="text_7">
      <text style="font-size: 10px; font-family: 'Helvetica Neue', 'Helvetica', 'Arial', 'DejaVu Sans'; text-anchor: end; fill: #52514e" x="31.27" y="104.217671" transform="rotate(-0 31.27 104.217671)">4</text>
     </g>
    </g>
    <g id="ytick_6">
     <g id="line2d_13">
      <path d="M 38.27 56.209065 
L 465.75 56.209065 
" clip-path="url(#pa7d14e4c99)" style="fill: none; stroke: #d6d5d0; stroke-width: 0.6; stroke-linecap: square"/>
     </g>
     <g id="line2d_14">
      <g>
       <use xlink:href="#mc5ff12648c" x="38.27" y="56.209065" style="fill: #52514e; stroke: #52514e; stroke-width: 0.8"/>
      </g>
     </g>
     <g id="text_8">
      <text style="font-size: 10px; font-family: 'Helvetica Neue', 'Helvetica', 'Arial', 'DejaVu Sans'; text-anchor: end; fill: #52514e" x="31.27" y="60.008284" transform="rotate(-0 31.27 60.008284)">5</text>
     </g>
    </g>
    <g id="text_9">
     <text style="font-size: 10px; font-family: 'Helvetica Neue', 'Helvetica', 'Arial', 'DejaVu Sans'; text-anchor: middle; fill: #52514e" x="18.827813" y="161.068" transform="rotate(-90 18.827813 161.068)">MiB</text>
    </g>
   </g>
   <g id="line2d_15">
    <path d="M 38.27 277.256 
L 465.75 277.256 
" clip-path="url(#pa7d14e4c99)" style="fill: none; stroke: #52514e; stroke-width: 0.8; stroke-linecap: square"/>
   </g>
   <g id="patch_3">
    <path d="M 57.700909 277.256 
L 137.645221 277.256 
L 137.645221 237.588997 
L 57.700909 237.588997 
z
" clip-path="url(#pa7d14e4c99)" style="fill: #eb6834"/>
   </g>
   <g id="patch_4">
    <path d="M 279.768442 277.256 
L 359.712753 277.256 
L 359.712753 238.188977 
L 279.768442 238.188977 
z
" clip-path="url(#pa7d14e4c99)" style="fill: #eb6834"/>
   </g>
   <g id="patch_5">
    <path d="M 144.307247 277.256 
L 224.251558 277.256 
L 224.251558 84.311769 
L 144.307247 84.311769 
z
" clip-path="url(#pa7d14e4c99)" style="fill: #2a78d6"/>
   </g>
   <g id="patch_6">
    <path d="M 366.374779 277.256 
L 446.319091 277.256 
L 446.319091 90.751217 
L 366.374779 90.751217 
z
" clip-path="url(#pa7d14e4c99)" style="fill: #2a78d6"/>
   </g>
   <g id="patch_7">
    <path d="M 38.27 277.256 
L 38.27 44.88 
" style="fill: none; stroke: #d6d5d0; stroke-width: 0.8; stroke-linejoin: miter; stroke-linecap: square"/>
   </g>
   <g id="patch_8">
    <path d="M 38.27 277.256 
L 465.75 277.256 
" style="fill: none; stroke: #d6d5d0; stroke-width: 0.8; stroke-linejoin: miter; stroke-linecap: square"/>
   </g>
   <g id="LineCollection_1">
    <path d="M 97.673065 239.415544 
L 97.673065 235.762449 
" clip-path="url(#pa7d14e4c99)" style="fill: none; stroke: #0b0b0b"/>
   </g>
   <g id="line2d_16">
    <defs>
     <path id="me1b01e6d94" d="M 3 0 
L -3 -0 
" style="stroke: #0b0b0b"/>
    </defs>
    <g clip-path="url(#pa7d14e4c99)">
     <use xlink:href="#me1b01e6d94" x="97.673065" y="239.415544" style="fill: #0b0b0b; stroke: #0b0b0b"/>
    </g>
   </g>
   <g id="line2d_17">
    <g clip-path="url(#pa7d14e4c99)">
     <use xlink:href="#me1b01e6d94" x="97.673065" y="235.762449" style="fill: #0b0b0b; stroke: #0b0b0b"/>
    </g>
   </g>
   <g id="text_10">
    <text style="font-size: 7.5px; font-family: 'Helvetica Neue', 'Helvetica', 'Arial', 'DejaVu Sans'; text-anchor: middle; fill: #52514e" x="97.673065" y="232.762449" transform="rotate(-0 97.673065 232.762449)">0.9</text>
   </g>
   <g id="LineCollection_2">
    <path d="M 319.740597 238.818737 
L 319.740597 237.559216 
" clip-path="url(#pa7d14e4c99)" style="fill: none; stroke: #0b0b0b"/>
   </g>
   <g id="line2d_18">
    <g clip-path="url(#pa7d14e4c99)">
     <use xlink:href="#me1b01e6d94" x="319.740597" y="238.818737" style="fill: #0b0b0b; stroke: #0b0b0b"/>
    </g>
   </g>
   <g id="line2d_19">
    <g clip-path="url(#pa7d14e4c99)">
     <use xlink:href="#me1b01e6d94" x="319.740597" y="237.559216" style="fill: #0b0b0b; stroke: #0b0b0b"/>
    </g>
   </g>
   <g id="text_11">
    <text style="font-size: 7.5px; font-family: 'Helvetica Neue', 'Helvetica', 'Arial', 'DejaVu Sans'; text-anchor: middle; fill: #52514e" x="319.740597" y="234.559216" transform="rotate(-0 319.740597 234.559216)">0.88</text>
   </g>
   <g id="LineCollection_3">
    <path d="M 184.279403 88.296352 
L 184.279403 80.327186 
" clip-path="url(#pa7d14e4c99)" style="fill: none; stroke: #0b0b0b"/>
   </g>
   <g id="line2d_20">
    <g clip-path="url(#pa7d14e4c99)">
     <use xlink:href="#me1b01e6d94" x="184.279403" y="88.296352" style="fill: #0b0b0b; stroke: #0b0b0b"/>
    </g>
   </g>
   <g id="line2d_21">
    <g clip-path="url(#pa7d14e4c99)">
     <use xlink:href="#me1b01e6d94" x="184.279403" y="80.327186" style="fill: #0b0b0b; stroke: #0b0b0b"/>
    </g>
   </g>
   <g id="text_12">
    <text style="font-size: 7.5px; font-family: 'Helvetica Neue', 'Helvetica', 'Arial', 'DejaVu Sans'; text-anchor: middle; fill: #52514e" x="184.279403" y="77.327186" transform="rotate(-0 184.279403 77.327186)">4.36</text>
   </g>
   <g id="LineCollection_4">
    <path d="M 406.346935 91.211379 
L 406.346935 90.291056 
" clip-path="url(#pa7d14e4c99)" style="fill: none; stroke: #0b0b0b"/>
   </g>
   <g id="line2d_22">
    <g clip-path="url(#pa7d14e4c99)">
     <use xlink:href="#me1b01e6d94" x="406.346935" y="91.211379" style="fill: #0b0b0b; stroke: #0b0b0b"/>
    </g>
   </g>
   <g id="line2d_23">
    <g clip-path="url(#pa7d14e4c99)">
     <use xlink:href="#me1b01e6d94" x="406.346935" y="90.291056" style="fill: #0b0b0b; stroke: #0b0b0b"/>
    </g>
   </g>
   <g id="text_13">
    <text style="font-size: 7.5px; font-family: 'Helvetica Neue', 'Helvetica', 'Arial', 'DejaVu Sans'; text-anchor: middle; fill: #52514e" x="406.346935" y="87.291056" transform="rotate(-0 406.346935 87.291056)">4.22</text>
   </g>
   <g id="text_14">
    <text style="font-size: 8.5px; font-family: 'Helvetica Neue', 'Helvetica', 'Arial', 'DejaVu Sans'; text-anchor: start; fill: #52514e" x="38.27" y="38.228339" transform="rotate(-0 38.27 38.228339)">Window: idle_pre. Defaults: Go 2 workers, protobuf, 30 s TCP keepalive, 300-600 s watch timeout.</text>
   </g>
   <g id="text_15">
    <text style="font-weight: 700; font-size: 13px; font-family: 'Helvetica Neue', 'Helvetica', 'Arial', 'DejaVu Sans'; text-anchor: start; fill: #0b0b0b" x="38.27" y="20.88" transform="rotate(-0 38.27 20.88)">memory.current: defaults vs parity</text>
   </g>
   <g id="line2d_24">
    <path d="M 97.673065 237.588997 
" clip-path="url(#pa7d14e4c99)" style="fill: none; stroke: #0b0b0b; stroke-linecap: square"/>
   </g>
   <g id="line2d_25">
    <path d="M 319.740597 238.188977 
" clip-path="url(#pa7d14e4c99)" style="fill: none; stroke: #0b0b0b; stroke-linecap: square"/>
   </g>
   <g id="line2d_26">
    <path d="M 184.279403 84.311769 
" clip-path="url(#pa7d14e4c99)" style="fill: none; stroke: #0b0b0b; stroke-linecap: square"/>
   </g>
   <g id="line2d_27">
    <path d="M 406.346935 90.751217 
" clip-path="url(#pa7d14e4c99)" style="fill: none; stroke: #0b0b0b; stroke-linecap: square"/>
   </g>
   <g id="PathCollection_1">
    <defs>
     <path id="C0_0_8b3b12ba25" d="M 0 1.581139 
C 0.419323 1.581139 0.821528 1.41454 1.118034 1.118034 
C 1.41454 0.821528 1.581139 0.419323 1.581139 -0 
C 1.581139 -0.419323 1.41454 -0.821528 1.118034 -1.118034 
C 0.821528 -1.41454 0.419323 -1.581139 0 -1.581139 
C -0.419323 -1.581139 -0.821528 -1.41454 -1.118034 -1.118034 
C -1.41454 -0.821528 -1.581139 -0.419323 -1.581139 0 
C -1.581139 0.419323 -1.41454 0.821528 -1.118034 1.118034 
C -0.821528 1.41454 -0.419323 1.581139 0 1.581139 
z
"/>
    </defs>
    <g clip-path="url(#pa7d14e4c99)">
     <use xlink:href="#C0_0_8b3b12ba25" x="97.673065" y="236.783555" style="fill: #0b0b0b; fill-opacity: 0.55"/>
    </g>
    <g clip-path="url(#pa7d14e4c99)">
     <use xlink:href="#C0_0_8b3b12ba25" x="97.673065" y="238.224105" style="fill: #0b0b0b; fill-opacity: 0.55"/>
    </g>
    <g clip-path="url(#pa7d14e4c99)">
     <use xlink:href="#C0_0_8b3b12ba25" x="97.673065" y="237.759329" style="fill: #0b0b0b; fill-opacity: 0.55"/>
    </g>
   </g>
   <g id="PathCollection_2">
    <defs>
     <path id="C1_0_917d8c29ba" d="M 0 1.581139 
C 0.419323 1.581139 0.821528 1.41454 1.118034 1.118034 
C 1.41454 0.821528 1.581139 0.419323 1.581139 -0 
C 1.581139 -0.419323 1.41454 -0.821528 1.118034 -1.118034 
C 0.821528 -1.41454 0.419323 -1.581139 0 -1.581139 
C -0.419323 -1.581139 -0.821528 -1.41454 -1.118034 -1.118034 
C -1.41454 -0.821528 -1.581139 -0.419323 -1.581139 0 
C -1.581139 0.419323 -1.41454 0.821528 -1.118034 1.118034 
C -0.821528 1.41454 -0.419323 1.581139 0 1.581139 
z
"/>
    </defs>
    <g clip-path="url(#pa7d14e4c99)">
     <use xlink:href="#C1_0_917d8c29ba" x="319.740597" y="238.242385" style="fill: #0b0b0b; fill-opacity: 0.55"/>
    </g>
    <g clip-path="url(#pa7d14e4c99)">
     <use xlink:href="#C1_0_917d8c29ba" x="319.740597" y="238.315473" style="fill: #0b0b0b; fill-opacity: 0.55"/>
    </g>
    <g clip-path="url(#pa7d14e4c99)">
     <use xlink:href="#C1_0_917d8c29ba" x="319.740597" y="238.565393" style="fill: #0b0b0b; fill-opacity: 0.55"/>
    </g>
    <g clip-path="url(#pa7d14e4c99)">
     <use xlink:href="#C1_0_917d8c29ba" x="319.740597" y="237.632655" style="fill: #0b0b0b; fill-opacity: 0.55"/>
    </g>
   </g>
   <g id="PathCollection_3">
    <defs>
     <path id="C2_0_da3929126f" d="M 0 1.581139 
C 0.419323 1.581139 0.821528 1.41454 1.118034 1.118034 
C 1.41454 0.821528 1.581139 0.419323 1.581139 -0 
C 1.581139 -0.419323 1.41454 -0.821528 1.118034 -1.118034 
C 0.821528 -1.41454 0.419323 -1.581139 0 -1.581139 
C -0.419323 -1.581139 -0.821528 -1.41454 -1.118034 -1.118034 
C -1.41454 -0.821528 -1.581139 -0.419323 -1.581139 0 
C -1.581139 0.419323 -1.41454 0.821528 -1.118034 1.118034 
C -0.821528 1.41454 -0.419323 1.581139 0 1.581139 
z
"/>
    </defs>
    <g clip-path="url(#pa7d14e4c99)">
     <use xlink:href="#C2_0_da3929126f" x="184.279403" y="83.674691" style="fill: #0b0b0b; fill-opacity: 0.55"/>
    </g>
    <g clip-path="url(#pa7d14e4c99)">
     <use xlink:href="#C2_0_da3929126f" x="184.279403" y="86.136307" style="fill: #0b0b0b; fill-opacity: 0.55"/>
    </g>
    <g clip-path="url(#pa7d14e4c99)">
     <use xlink:href="#C2_0_da3929126f" x="184.279403" y="83.12431" style="fill: #0b0b0b; fill-opacity: 0.55"/>
    </g>
   </g>
   <g id="PathCollection_4">
    <defs>
     <path id="C3_0_e13051baba" d="M 0 1.581139 
C 0.419323 1.581139 0.821528 1.41454 1.118034 1.118034 
C 1.41454 0.821528 1.581139 0.419323 1.581139 -0 
C 1.581139 -0.419323 1.41454 -0.821528 1.118034 -1.118034 
C 0.821528 -1.41454 0.419323 -1.581139 0 -1.581139 
C -0.419323 -1.581139 -0.821528 -1.41454 -1.118034 -1.118034 
C -1.41454 -0.821528 -1.581139 -0.419323 -1.581139 0 
C -1.581139 0.419323 -1.41454 0.821528 -1.118034 1.118034 
C -0.821528 1.41454 -0.419323 1.581139 0 1.581139 
z
"/>
    </defs>
    <g clip-path="url(#pa7d14e4c99)">
     <use xlink:href="#C3_0_e13051baba" x="406.346935" y="90.438886" style="fill: #0b0b0b; fill-opacity: 0.55"/>
    </g>
    <g clip-path="url(#pa7d14e4c99)">
     <use xlink:href="#C3_0_e13051baba" x="406.346935" y="90.585598" style="fill: #0b0b0b; fill-opacity: 0.55"/>
    </g>
    <g clip-path="url(#pa7d14e4c99)">
     <use xlink:href="#C3_0_e13051baba" x="406.346935" y="91.066869" style="fill: #0b0b0b; fill-opacity: 0.55"/>
    </g>
    <g clip-path="url(#pa7d14e4c99)">
     <use xlink:href="#C3_0_e13051baba" x="406.346935" y="90.913516" style="fill: #0b0b0b; fill-opacity: 0.55"/>
    </g>
   </g>
   <g id="legend_1">
    <g id="patch_9">
     <path d="M 46.37 59.818594 
L 64.37 59.818594 
L 64.37 53.518594 
L 46.37 53.518594 
z
" style="fill: #eb6834"/>
    </g>
    <g id="text_16">
     <text style="font-size: 9px; font-family: 'Helvetica Neue', 'Helvetica', 'Arial', 'DejaVu Sans'; text-anchor: start; fill: #0b0b0b" x="71.57" y="59.818594" transform="rotate(-0 71.57 59.818594)">Rust (kube-rs)</text>
    </g>
    <g id="patch_10">
     <path d="M 152.742969 59.818594 
L 170.742969 59.818594 
L 170.742969 53.518594 
L 152.742969 53.518594 
z
" style="fill: #2a78d6"/>
    </g>
    <g id="text_17">
     <text style="font-size: 9px; font-family: 'Helvetica Neue', 'Helvetica', 'Arial', 'DejaVu Sans'; text-anchor: start; fill: #0b0b0b" x="177.942969" y="59.818594" transform="rotate(-0 177.942969 59.818594)">Go (client-go)</text>
    </g>
   </g>
  </g>
 </g>
 <defs>
  <clipPath id="pa7d14e4c99">
   <rect x="38.27" y="44.88" width="427.48" height="232.376"/>
  </clipPath>
 </defs>
</svg>
