<?xml version="1.0" encoding="utf-8" standalone="no"?>
<!DOCTYPE svg PUBLIC "-//W3C//DTD SVG 1.1//EN"
  "http://www.w3.org/Graphics/SVG/1.1/DTD/svg11.dtd">
<svg xmlns:xlink="http://www.w3.org/1999/xlink" width="576pt" height="316.8pt" viewBox="0 0 576 316.8" xmlns="http://www.w3.org/2000/svg" version="1.1">
 <metadata>
  <rdf:RDF xmlns:dc="http://purl.org/dc/elements/1.1/" xmlns:cc="http://creativecommons.org/ns#" xmlns:rdf="http://www.w3.org/1999/02/22-rdf-syntax-ns#">
   <cc:Work>
    <dc:type rdf:resource="http://purl.org/dc/dcmitype/StillImage"/>
    <dc:date>2026-10-02T05:40:43.145478</dc:date>
    <dc:format>image/svg+xml</dc:format>
    <dc:creator>
     <cc:Agent>
      <dc:title>Matplotlib v3.10.1+dfsg1, https://matplotlib.org/</dc:title>
     </cc:Agent>
    </dc:creator>
   </cc:Work>
  </rdf:RDF>
 </metadata>
 <defs>
  <style type="text/css">*{stroke-linejoin: round; stroke-linecap: butt}</style>
 </defs>
 <g id="figure_1">
  <g id="patch_1">
   <path d="M 0 316.8 
L 576 316.8 
L 576 0 
L 0 0 
L 0 316.8 
z
" style="fill: none"/>
  </g>
  <g id="axes_1">
   <g id="patch_2">
    <path d="M 62.57 277.256 
L 565.2 277.256 
L 565.2 44.88 
L 62.57 44.88 
L 62.57 277.256 
z
" style="fill: none"/>
   </g>
   <g id="matplotlib.axis_1">
    <g id="xtick_1">
     <g id="line2d_1">
      <defs>
       <path id="me70e02088d" d="M 0 0 
L 0 3.5 
" style="stroke: #c3c2b7; stroke-width: 0.8"/>
      </defs>
      <g>
       <use xlink:href="#me70e02088d" x="147.726322" y="277.256" style="fill: #c3c2b7; stroke: #c3c2b7; stroke-width: 0.8"/>
      </g>
     </g>
     <g id="text_1">
      <text style="font-size: 10px; font-family: 'Helvetica Neue', 'Helvetica', 'Arial', 'DejaVu Sans'; fill: #c3c2b7" transform="translate(125.361479 291.854438)">0-10 min</text>
      <text style="font-size: 10px; font-family: 'Helvetica Neue', 'Helvetica', 'Arial', 'DejaVu Sans'; fill: #c3c2b7" transform="translate(120.084916 303.05225)">after churn</text>
     </g>
    </g>
    <g id="xtick_2">
     <g id="line2d_2">
      <g>
       <use xlink:href="#me70e02088d" x="313.885" y="277.256" style="fill: #c3c2b7; stroke: #c3c2b7; stroke-width: 0.8"/>
      </g>
     </g>
     <g id="text_2">
      <text style="font-size: 10px; font-family: 'Helvetica Neue', 'Helvetica', 'Arial', 'DejaVu Sans'; fill: #c3c2b7" transform="translate(288.338906 291.854438)">10-30 min</text>
      <text style="font-size: 10px; font-family: 'Helvetica Neue', 'Helvetica', 'Arial', 'DejaVu Sans'; fill: #c3c2b7" transform="translate(286.243594 303.05225)">after churn</text>
     </g>
    </g>
    <g id="xtick_3">
     <g id="line2d_3">
      <g>
       <use xlink:href="#me70e02088d" x="480.043678" y="277.256" style="fill: #c3c2b7; stroke: #c3c2b7; stroke-width: 0.8"/>
      </g>
     </g>
     <g id="text_3">
      <text style="font-size: 10px; font-family: 'Helvetica Neue', 'Helvetica', 'Arial', 'DejaVu Sans'; fill: #c3c2b7" transform="translate(454.497584 291.854438)">30-60 min</text>
      <text style="font-size: 10px; font-family: 'Helvetica Neue', 'Helvetica', 'Arial', 'DejaVu Sans'; fill: #c3c2b7" transform="translate(452.402271 303.05225)">after churn</text>
     </g>
    </g>
   </g>
   <g id="matplotlib.axis_2">
    <g id="ytick_1">
     <g id="line2d_4">
      <path d="M 62.57 256.487187 
L 565.2 256.487187 
" clip-path="url(#p68e7d4b42f)" style="fill: none; stroke: #4a4944; stroke-width: 0.6; stroke-linecap: square"/>
     </g>
     <g id="line2d_5">
      <defs>
       <path id="m3f17522117" d="M 0 0 
L -3.5 0 
" style="stroke: #c3c2b7; stroke-width: 0.8"/>
      </defs>
      <g>
       <use xlink:href="#m3f17522117" x="62.57" y="256.487187" style="fill: #c3c2b7; stroke: #c3c2b7; stroke-width: 0.8"/>
      </g>
     </g>
     <g id="text_4">
      <text style="font-size: 10px; font-family: 'Helvetica Neue', 'Helvetica', 'Arial', 'DejaVu Sans'; text-anchor: end; fill: #c3c2b7" x="55.57" y="260.286406" transform="rotate(-0 55.57 260.286406)">−0.05</text>
     </g>
    </g>
    <g id="ytick_2">
     <g id="line2d_6">
      <path d="M 62.57 230.66736 
L 565.2 230.66736 
" clip-path="url(#p68e7d4b42f)" style="fill: none; stroke: #4a4944; stroke-width: 0.6; stroke-linecap: square"/>
     </g>
     <g id="line2d_7">
      <g>
       <use xlink:href="#m3f17522117" x="62.57" y="230.66736" style="fill: #c3c2b7; stroke: #c3c2b7; stroke-width: 0.8"/>
      </g>
     </g>
     <g id="text_5">
      <text style="font-size: 10px; font-family: 'Helvetica Neue', 'Helvetica', 'Arial', 'DejaVu Sans'; text-anchor: end; fill: #c3c2b7" x="55.57" y="234.466579" transform="rotate(-0 55.57 234.466579)">0.00</text>
     </g>
    </g>
    <g id="ytick_3">
     <g id="line2d_8">
      <path d="M 62.57 204.847533 
L 565.2 204.847533 
" clip-path="url(#p68e7d4b42f)" style="fill: none; stroke: #4a4944; stroke-width: 0.6; stroke-linecap: square"/>
     </g>
     <g id="line2d_9">
      <g>
       <use xlink:href="#m3f17522117" x="62.57" y="204.847533" style="fill: #c3c2b7; stroke: #c3c2b7; stroke-width: 0.8"/>
      </g>
     </g>
     <g id="text_6">
      <text style="font-size: 10px; font-family: 'Helvetica Neue', 'Helvetica', 'Arial', 'DejaVu Sans'; text-anchor: end; fill: #c3c2b7" x="55.57" y="208.646752" transform="rotate(-0 55.57 208.646752)">0.05</text>
     </g>
    </g>
    <g id="ytick_4">
     <g id="line2d_10">
      <path d="M 62.57 179.027706 
L 565.2 179.027706 
" clip-path="url(#p68e7d4b42f)" style="fill: none; stroke: #4a4944; stroke-width: 0.6; stroke-linecap: square"/>
     </g>
     <g id="line2d_11">
      <g>
       <use xlink:href="#m3f17522117" x="62.57" y="179.027706" style="fill: #c3c2b7; stroke: #c3c2b7; stroke-width: 0.8"/>
      </g>
     </g>
     <g id="text_7">
      <text style="font-size: 10px; font-family: 'Helvetica Neue', 'Helvetica', 'Arial', 'DejaVu Sans'; text-anchor: end; fill: #c3c2b7" x="55.57" y="182.826924" transform="rotate(-0 55.57 182.826924)">0.10</text>
     </g>
    </g>
    <g id="ytick_5">
     <g id="line2d_12">
      <path d="M 62.57 153.207878 
L 565.2 153.207878 
" clip-path="url(#p68e7d4b42f)" style="fill: none; stroke: #4a4944; stroke-width: 0.6; stroke-linecap: square"/>
     </g>
     <g id="line2d_13">
      <g>
       <use xlink:href="#m3f17522117" x="62.57" y="153.207878" style="fill: #c3c2b7; stroke: #c3c2b7; stroke-width: 0.8"/>
      </g>
     </g>
     <g id="text_8">
      <text style="font-size: 10px; font-family: 'Helvetica Neue', 'Helvetica', 'Arial', 'DejaVu Sans'; text-anchor: end; fill: #c3c2b7" x="55.57" y="157.007097" transform="rotate(-0 55.57 157.007097)">0.15</text>
     </g>
    </g>
    <g id="ytick_6">
     <g id="line2d_14">
      <path d="M 62.57 127.388051 
L 565.2 127.388051 
" clip-path="url(#p68e7d4b42f)" style="fill: none; stroke: #4a4944; stroke-width: 0.6; stroke-linecap: square"/>
     </g>
     <g id="line2d_15">
      <g>
       <use xlink:href="#m3f17522117" x="62.57" y="127.388051" style="fill: #c3c2b7; stroke: #c3c2b7; stroke-width: 0.8"/>
      </g>
     </g>
     <g id="text_9">
      <text style="font-size: 10px; font-family: 'Helvetica Neue', 'Helvetica', 'Arial', 'DejaVu Sans'; text-anchor: end; fill: #c3c2b7" x="55.57" y="131.18727" transform="rotate(-0 55.57 131.18727)">0.20</text>
     </g>
    </g>
    <g id="ytick_7">
     <g id="line2d_16">
      <path d="M 62.57 101.568224 
L 565.2 101.568224 
" clip-path="url(#p68e7d4b42f)" style="fill: none; stroke: #4a4944; stroke-width: 0.6; stroke-linecap: square"/>
     </g>
     <g id="line2d_17">
      <g>
       <use xlink:href="#m3f17522117" x="62.57" y="101.568224" style="fill: #c3c2b7; stroke: #c3c2b7; stroke-width: 0.8"/>
      </g>
     </g>
     <g id="text_10">
      <text style="font-size: 10px; font-family: 'Helvetica Neue', 'Helvetica', 'Arial', 'DejaVu Sans'; text-anchor: end; fill: #c3c2b7" x="55.57" y="105.367443" transform="rotate(-0 55.57 105.367443)">0.25</text>
     </g>
    </g>
    <g id="ytick_8">
     <g id="line2d_18">
      <path d="M 62.57 75.748397 
L 565.2 75.748397 
" clip-path="url(#p68e7d4b42f)" style="fill: none; stroke: #4a4944; stroke-width: 0.6; stroke-linecap: square"/>
     </g>
     <g id="line2d_19">
      <g>
       <use xlink:href="#m3f17522117" x="62.57" y="75.748397" style="fill: #c3c2b7; stroke: #c3c2b7; stroke-width: 0.8"/>
      </g>
     </g>
     <g id="text_11">
      <text style="font-size: 10px; font-family: 'Helvetica Neue', 'Helvetica', 'Arial', 'DejaVu Sans'; text-anchor: end; fill: #c3c2b7" x="55.57" y="79.547616" transform="rotate(-0 55.57 79.547616)">0.30</text>
     </g>
    </g>
    <g id="ytick_9">
     <g id="line2d_20">
      <path d="M 62.57 49.92857 
L 565.2 49.92857 
" clip-path="url(#p68e7d4b42f)" style="fill: none; stroke: #4a4944; stroke-width: 0.6; stroke-linecap: square"/>
     </g>
     <g id="line2d_21">
      <g>
       <use xlink:href="#m3f17522117" x="62.57" y="49.92857" style="fill: #c3c2b7; stroke: #c3c2b7; stroke-width: 0.8"/>
      </g>
     </g>
     <g id="text_12">
      <text style="font-size: 10px; font-family: 'Helvetica Neue', 'Helvetica', 'Arial', 'DejaVu Sans'; text-anchor: end; fill: #c3c2b7" x="55.57" y="53.727788" transform="rotate(-0 55.57 53.727788)">0.35</text>
     </g>
    </g>
    <g id="text_13">
     <text style="font-size: 10px; font-family: 'Helvetica Neue', 'Helvetica', 'Arial', 'DejaVu Sans'; text-anchor: middle; fill: #c3c2b7" x="18.845" y="161.068" transform="rotate(-90 18.845 161.068)">change in 1/s</text>
    </g>
   </g>
   <g id="line2d_22">
    <path d="M 62.57 230.66736 
L 565.2 230.66736 
" clip-path="url(#p68e7d4b42f)" style="fill: none; stroke: #c3c2b7; stroke-width: 0.8; stroke-linecap: square"/>
   </g>
   <g id="patch_3">
    <path d="M 85.416818 230.66736 
L 145.233942 230.66736 
L 145.233942 232.339772 
L 85.416818 232.339772 
z
" clip-path="url(#p68e7d4b42f)" style="fill: #d95926"/>
   </g>
   <g id="patch_4">
    <path d="M 251.575496 230.66736 
L 311.39262 230.66736 
L 311.39262 223.721802 
L 251.575496 223.721802 
z
" clip-path="url(#p68e7d4b42f)" style="fill: #d95926"/>
   </g>
   <g id="patch_5">
    <path d="M 417.734174 230.66736 
L 477.551298 230.66736 
L 477.551298 225.435645 
L 417.734174 225.435645 
z
" clip-path="url(#p68e7d4b42f)" style="fill: #d95926"/>
   </g>
   <g id="patch_6">
    <path d="M 150.218702 230.66736 
L 210.035826 230.66736 
L 210.035826 125.385074 
L 150.218702 125.385074 
z
" clip-path="url(#p68e7d4b42f)" style="fill: #3987e5"/>
   </g>
   <g id="patch_7">
    <path d="M 316.37738 230.66736 
L 376.194504 230.66736 
L 376.194504 175.153514 
L 316.37738 175.153514 
z
" clip-path="url(#p68e7d4b42f)" style="fill: #3987e5"/>
   </g>
   <g id="patch_8">
    <path d="M 482.536058 230.66736 
L 542.353182 230.66736 
L 542.353182 190.372785 
L 482.536058 190.372785 
z
" clip-path="url(#p68e7d4b42f)" style="fill: #3987e5"/>
   </g>
   <g id="patch_9">
    <path d="M 62.57 277.256 
L 62.57 44.88 
" style="fill: none; stroke: #4a4944; stroke-width: 0.8; stroke-linejoin: miter; stroke-linecap: square"/>
   </g>
   <g id="patch_10">
    <path d="M 62.57 277.256 
L 565.2 277.256 
" style="fill: none; stroke: #4a4944; stroke-width: 0.8; stroke-linejoin: miter; stroke-linecap: square"/>
   </g>
   <g id="LineCollection_1">
    <path d="M 115.32538 246.500353 
L 115.32538 218.17919 
" clip-path="url(#p68e7d4b42f)" style="fill: none; stroke: #ffffff"/>
   </g>
   <g id="line2d_23">
    <defs>
     <path id="m0e9e543e38" d="M 3 0 
L -3 -0 
" style="stroke: #ffffff"/>
    </defs>
    <g clip-path="url(#p68e7d4b42f)">
     <use xlink:href="#m0e9e543e38" x="115.32538" y="246.500353" style="fill: #ffffff; stroke: #ffffff"/>
    </g>
   </g>
   <g id="line2d_24">
    <g clip-path="url(#p68e7d4b42f)">
     <use xlink:href="#m0e9e543e38" x="115.32538" y="218.17919" style="fill: #ffffff; stroke: #ffffff"/>
    </g>
   </g>
   <g id="text_14">
    <text style="font-size: 7.5px; font-family: 'Helvetica Neue', 'Helvetica', 'Arial', 'DejaVu Sans'; text-anchor: middle; fill: #c3c2b7" x="115.32538" y="256.500353" transform="rotate(-0 115.32538 256.500353)">-0.0032</text>
   </g>
   <g id="LineCollection_2">
    <path d="M 281.484058 237.811528 
L 281.484058 209.632077 
" clip-path="url(#p68e7d4b42f)" style="fill: none; stroke: #ffffff"/>
   </g>
   <g id="line2d_25">
    <g clip-path="url(#p68e7d4b42f)">
     <use xlink:href="#m0e9e543e38" x="281.484058" y="237.811528" style="fill: #ffffff; stroke: #ffffff"/>
    </g>
   </g>
   <g id="line2d_26">
    <g clip-path="url(#p68e7d4b42f)">
     <use xlink:href="#m0e9e543e38" x="281.484058" y="209.632077" style="fill: #ffffff; stroke: #ffffff"/>
    </g>
   </g>
   <g id="text_15">
    <text style="font-size: 7.5px; font-family: 'Helvetica Neue', 'Helvetica', 'Arial', 'DejaVu Sans'; text-anchor: middle; fill: #c3c2b7" x="281.484058" y="206.632077" transform="rotate(-0 281.484058 206.632077)">0.013</text>
   </g>
   <g id="LineCollection_3">
    <path d="M 447.642736 230.94651 
L 447.642736 219.92478 
" clip-path="url(#p68e7d4b42f)" style="fill: none; stroke: #ffffff"/>
   </g>
   <g id="line2d_27">
    <g clip-path="url(#p68e7d4b42f)">
     <use xlink:href="#m0e9e543e38" x="447.642736" y="230.94651" style="fill: #ffffff; stroke: #ffffff"/>
    </g>
   </g>
   <g id="line2d_28">
    <g clip-path="url(#p68e7d4b42f)">
     <use xlink:href="#m0e9e543e38" x="447.642736" y="219.92478" style="fill: #ffffff; stroke: #ffffff"/>
    </g>
   </g>
   <g id="text_16">
    <text style="font-size: 7.5px; font-family: 'Helvetica Neue', 'Helvetica', 'Arial', 'DejaVu Sans'; text-anchor: middle; fill: #c3c2b7" x="447.642736" y="216.92478" transform="rotate(-0 447.642736 216.92478)">0.01</text>
   </g>
   <g id="LineCollection_4">
    <path d="M 180.127264 175.134501 
L 180.127264 75.635647 
" clip-path="url(#p68e7d4b42f)" style="fill: none; stroke: #ffffff"/>
   </g>
   <g id="line2d_29">
    <g clip-path="url(#p68e7d4b42f)">
     <use xlink:href="#m0e9e543e38" x="180.127264" y="175.134501" style="fill: #ffffff; stroke: #ffffff"/>
    </g>
   </g>
   <g id="line2d_30">
    <g clip-path="url(#p68e7d4b42f)">
     <use xlink:href="#m0e9e543e38" x="180.127264" y="75.635647" style="fill: #ffffff; stroke: #ffffff"/>
    </g>
   </g>
   <g id="text_17">
    <text style="font-size: 7.5px; font-family: 'Helvetica Neue', 'Helvetica', 'Arial', 'DejaVu Sans'; text-anchor: middle; fill: #c3c2b7" x="180.127264" y="72.635647" transform="rotate(-0 180.127264 72.635647)">0.2</text>
   </g>
   <g id="LineCollection_5">
    <path d="M 346.285942 209.147101 
L 346.285942 141.159927 
" clip-path="url(#p68e7d4b42f)" style="fill: none; stroke: #ffffff"/>
   </g>
   <g id="line2d_31">
    <g clip-path="url(#p68e7d4b42f)">
     <use xlink:href="#m0e9e543e38" x="346.285942" y="209.147101" style="fill: #ffffff; stroke: #ffffff"/>
    </g>
   </g>
   <g id="line2d_32">
    <g clip-path="url(#p68e7d4b42f)">
     <use xlink:href="#m0e9e543e38" x="346.285942" y="141.159927" style="fill: #ffffff; stroke: #ffffff"/>
    </g>
   </g>
   <g id="text_18">
    <text style="font-size: 7.5px; font-family: 'Helvetica Neue', 'Helvetica', 'Arial', 'DejaVu Sans'; text-anchor: middle; fill: #c3c2b7" x="346.285942" y="138.159927" transform="rotate(-0 346.285942 138.159927)">0.11</text>
   </g>
   <g id="LineCollection_6">
    <path d="M 512.44462 205.705507 
L 512.44462 175.040063 
" clip-path="url(#p68e7d4b42f)" style="fill: none; stroke: #ffffff"/>
   </g>
   <g id="line2d_33">
    <g clip-path="url(#p68e7d4b42f)">
     <use xlink:href="#m0e9e543e38" x="512.44462" y="205.705507" style="fill: #ffffff; stroke: #ffffff"/>
    </g>
   </g>
   <g id="line2d_34">
    <g clip-path="url(#p68e7d4b42f)">
     <use xlink:href="#m0e9e543e38" x="512.44462" y="175.040063" style="fill: #ffffff; stroke: #ffffff"/>
    </g>
   </g>
   <g id="text_19">
    <text style="font-size: 7.5px; font-family: 'Helvetica Neue', 'Helvetica', 'Arial', 'DejaVu Sans'; text-anchor: middle; fill: #c3c2b7" x="512.44462" y="172.040063" transform="rotate(-0 512.44462 172.040063)">0.078</text>
   </g>
   <g id="text_20">
    <text style="font-size: 8.5px; font-family: 'Helvetica Neue', 'Helvetica', 'Arial', 'DejaVu Sans'; text-anchor: start; fill: #c3c2b7" x="62.57" y="38.464746" transform="rotate(-0 62.57 38.464746)">Same-trial difference from that trial's own pre-churn baseline. 0 = back to baseline.</text>
   </g>
   <g id="text_21">
    <text style="font-weight: 700; font-size: 13px; font-family: 'Helvetica Neue', 'Helvetica', 'Arial', 'DejaVu Sans'; text-anchor: start; fill: #ffffff" x="62.57" y="20.88" transform="rotate(-0 62.57 20.88)">Change in Thread wakeups after churn</text>
   </g>
   <g id="line2d_35">
    <path d="M 115.32538 232.339772 
" clip-path="url(#p68e7d4b42f)" style="fill: none; stroke: #ffffff; stroke-linecap: square"/>
   </g>
   <g id="line2d_36">
    <path d="M 281.484058 223.721802 
" clip-path="url(#p68e7d4b42f)" style="fill: none; stroke: #ffffff; stroke-linecap: square"/>
   </g>
   <g id="line2d_37">
    <path d="M 447.642736 225.435645 
" clip-path="url(#p68e7d4b42f)" style="fill: none; stroke: #ffffff; stroke-linecap: square"/>
   </g>
   <g id="line2d_38">
    <path d="M 180.127264 125.385074 
" clip-path="url(#p68e7d4b42f)" style="fill: none; stroke: #ffffff; stroke-linecap: square"/>
   </g>
   <g id="line2d_39">
    <path d="M 346.285942 175.153514 
" clip-path="url(#p68e7d4b42f)" style="fill: none; stroke: #ffffff; stroke-linecap: square"/>
   </g>
   <g id="line2d_40">
    <path d="M 512.44462 190.372785 
" clip-path="url(#p68e7d4b42f)" style="fill: none; stroke: #ffffff; stroke-linecap: square"/>
   </g>
   <g id="PathCollection_1">
    <defs>
     <path id="C0_0_4c08530bfc" d="M 0 1.581139 
C 0.419323 1.581139 0.821528 1.41454 1.118034 1.118034 
C 1.41454 0.821528 1.581139 0.419323 1.581139 -0 
C 1.581139 -0.419323 1.41454 -0.821528 1.118034 -1.118034 
C 0.821528 -1.41454 0.419323 -1.581139 0 -1.581139 
C -0.419323 -1.581139 -0.821528 -1.41454 -1.118034 -1.118034 
C -1.41454 -0.821528 -1.581139 -0.419323 -1.581139 0 
C -1.581139 0.419323 -1.41454 0.821528 -1.118034 1.118034 
C -0.821528 1.41454 -0.419323 1.581139 0 1.581139 
z
"/>
    </defs>
    <g clip-path="url(#p68e7d4b42f)">
     <use xlink:href="#C0_0_4c08530bfc" x="115.32538" y="241.5875" style="fill: #ffffff; fill-opacity: 0.55"/>
    </g>
    <g clip-path="url(#p68e7d4b42f)">
     <use xlink:href="#C0_0_4c08530bfc" x="115.32538" y="221.947466" style="fill: #ffffff; fill-opacity: 0.55"/>
    </g>
    <g clip-path="url(#p68e7d4b42f)">
     <use xlink:href="#C0_0_4c08530bfc" x="115.32538" y="228.249585" style="fill: #ffffff; fill-opacity: 0.55"/>
    </g>
    <g clip-path="url(#p68e7d4b42f)">
     <use xlink:href="#C0_0_4c08530bfc" x="115.32538" y="237.574535" style="fill: #ffffff; fill-opacity: 0.55"/>
    </g>
   </g>
   <g id="PathCollection_2">
    <defs>
     <path id="C1_0_251b35a065" d="M 0 1.581139 
C 0.419323 1.581139 0.821528 1.41454 1.118034 1.118034 
C 1.41454 0.821528 1.581139 0.419323 1.581139 -0 
C 1.581139 -0.419323 1.41454 -0.821528 1.118034 -1.118034 
C 0.821528 -1.41454 0.419323 -1.581139 0 -1.581139 
C -0.419323 -1.581139 -0.821528 -1.41454 -1.118034 -1.118034 
C -1.41454 -0.821528 -1.581139 -0.419323 -1.581139 0 
C -1.581139 0.419323 -1.41454 0.821528 -1.118034 1.118034 
C -0.821528 1.41454 -0.419323 1.581139 0 1.581139 
z
"/>
    </defs>
    <g clip-path="url(#p68e7d4b42f)">
     <use xlink:href="#C1_0_251b35a065" x="281.484058" y="211.890455" style="fill: #ffffff; fill-opacity: 0.55"/>
    </g>
    <g clip-path="url(#p68e7d4b42f)">
     <use xlink:href="#C1_0_251b35a065" x="281.484058" y="233.113294" style="fill: #ffffff; fill-opacity: 0.55"/>
    </g>
    <g clip-path="url(#p68e7d4b42f)">
     <use xlink:href="#C1_0_251b35a065" x="281.484058" y="223.505906" style="fill: #ffffff; fill-opacity: 0.55"/>
    </g>
    <g clip-path="url(#p68e7d4b42f)">
     <use xlink:href="#C1_0_251b35a065" x="281.484058" y="226.377555" style="fill: #ffffff; fill-opacity: 0.55"/>
    </g>
   </g>
   <g id="PathCollection_3">
    <defs>
     <path id="C2_0_4ba9878efd" d="M 0 1.581139 
C 0.419323 1.581139 0.821528 1.41454 1.118034 1.118034 
C 1.41454 0.821528 1.581139 0.419323 1.581139 -0 
C 1.581139 -0.419323 1.41454 -0.821528 1.118034 -1.118034 
C 0.821528 -1.41454 0.419323 -1.581139 0 -1.581139 
C -0.419323 -1.581139 -0.821528 -1.41454 -1.118034 -1.118034 
C -1.41454 -0.821528 -1.581139 -0.419323 -1.581139 0 
C -1.581139 0.419323 -1.41454 0.821528 -1.118034 1.118034 
C -0.821528 1.41454 -0.419323 1.581139 0 1.581139 
z
"/>
    </defs>
    <g clip-path="url(#p68e7d4b42f)">
     <use xlink:href="#C2_0_4ba9878efd" x="447.642736" y="220.343388" style="fill: #ffffff; fill-opacity: 0.55"/>
    </g>
    <g clip-path="url(#p68e7d4b42f)">
     <use xlink:href="#C2_0_4ba9878efd" x="447.642736" y="226.511799" style="fill: #ffffff; fill-opacity: 0.55"/>
    </g>
    <g clip-path="url(#p68e7d4b42f)">
     <use xlink:href="#C2_0_4ba9878efd" x="447.642736" y="226.795829" style="fill: #ffffff; fill-opacity: 0.55"/>
    </g>
    <g clip-path="url(#p68e7d4b42f)">
     <use xlink:href="#C2_0_4ba9878efd" x="447.642736" y="228.091564" style="fill: #ffffff; fill-opacity: 0.55"/>
    </g>
   </g>
   <g id="PathCollection_4">
    <defs>
     <path id="C3_0_59d93c30f5" d="M 0 1.581139 
C 0.419323 1.581139 0.821528 1.41454 1.118034 1.118034 
C 1.41454 0.821528 1.581139 0.419323 1.581139 -0 
C 1.581139 -0.419323 1.41454 -0.821528 1.118034 -1.118034 
C 0.821528 -1.41454 0.419323 -1.581139 0 -1.581139 
C -0.419323 -1.581139 -0.821528 -1.41454 -1.118034 -1.118034 
C -1.41454 -0.821528 -1.581139 -0.419323 -1.581139 0 
C -1.581139 0.419323 -1.41454 0.821528 -1.118034 1.118034 
C -0.821528 1.41454 -0.419323 1.581139 0 1.581139 
z
"/>
    </defs>
    <g clip-path="url(#p68e7d4b42f)">
     <use xlink:href="#C3_0_59d93c30f5" x="180.127264" y="97.994684" style="fill: #ffffff; fill-opacity: 0.55"/>
    </g>
    <g clip-path="url(#p68e7d4b42f)">
     <use xlink:href="#C3_0_59d93c30f5" x="180.127264" y="105.486435" style="fill: #ffffff; fill-opacity: 0.55"/>
    </g>
    <g clip-path="url(#p68e7d4b42f)">
     <use xlink:href="#C3_0_59d93c30f5" x="180.127264" y="130.740403" style="fill: #ffffff; fill-opacity: 0.55"/>
    </g>
    <g clip-path="url(#p68e7d4b42f)">
     <use xlink:href="#C3_0_59d93c30f5" x="180.127264" y="167.318773" style="fill: #ffffff; fill-opacity: 0.55"/>
    </g>
   </g>
   <g id="PathCollection_5">
    <defs>
     <path id="C4_0_98d34a7ec4" d="M 0 1.581139 
C 0.419323 1.581139 0.821528 1.41454 1.118034 1.118034 
C 1.41454 0.821528 1.581139 0.419323 1.581139 -0 
C 1.581139 -0.419323 1.41454 -0.821528 1.118034 -1.118034 
C 0.821528 -1.41454 0.419323 -1.581139 0 -1.581139 
C -0.419323 -1.581139 -0.821528 -1.41454 -1.118034 -1.118034 
C -1.41454 -0.821528 -1.581139 -0.419323 -1.581139 0 
C -1.581139 0.419323 -1.41454 0.821528 -1.118034 1.118034 
C -0.821528 1.41454 -0.419323 1.581139 0 1.581139 
z
"/>
    </defs>
    <g clip-path="url(#p68e7d4b42f)">
     <use xlink:href="#C4_0_98d34a7ec4" x="346.285942" y="179.652526" style="fill: #ffffff; fill-opacity: 0.55"/>
    </g>
    <g clip-path="url(#p68e7d4b42f)">
     <use xlink:href="#C4_0_98d34a7ec4" x="346.285942" y="203.570977" style="fill: #ffffff; fill-opacity: 0.55"/>
    </g>
    <g clip-path="url(#p68e7d4b42f)">
     <use xlink:href="#C4_0_98d34a7ec4" x="346.285942" y="158.694258" style="fill: #ffffff; fill-opacity: 0.55"/>
    </g>
    <g clip-path="url(#p68e7d4b42f)">
     <use xlink:href="#C4_0_98d34a7ec4" x="346.285942" y="158.696294" style="fill: #ffffff; fill-opacity: 0.55"/>
    </g>
   </g>
   <g id="PathCollection_6">
    <defs>
     <path id="C5_0_462dcf3c01" d="M 0 1.581139 
C 0.419323 1.581139 0.821528 1.41454 1.118034 1.118034 
C 1.41454 0.821528 1.581139 0.419323 1.581139 -0 
C 1.581139 -0.419323 1.41454 -0.821528 1.118034 -1.118034 
C 0.821528 -1.41454 0.419323 -1.581139 0 -1.581139 
C -0.419323 -1.581139 -0.821528 -1.41454 -1.118034 -1.118034 
C -1.41454 -0.821528 -1.581139 -0.419323 -1.581139 0 
C -1.581139 0.419323 -1.41454 0.821528 -1.118034 1.118034 
C -0.821528 1.41454 -0.419323 1.581139 0 1.581139 
z
"/>
    </defs>
    <g clip-path="url(#p68e7d4b42f)">
     <use xlink:href="#C5_0_462dcf3c01" x="512.44462" y="176.195441" style="fill: #ffffff; fill-opacity: 0.55"/>
    </g>
    <g clip-path="url(#p68e7d4b42f)">
     <use xlink:href="#C5_0_462dcf3c01" x="512.44462" y="194.375126" style="fill: #ffffff; fill-opacity: 0.55"/>
    </g>
    <g clip-path="url(#p68e7d4b42f)">
     <use xlink:href="#C5_0_462dcf3c01" x="512.44462" y="193.241794" style="fill: #ffffff; fill-opacity: 0.55"/>
    </g>
    <g clip-path="url(#p68e7d4b42f)">
     <use xlink:href="#C5_0_462dcf3c01" x="512.44462" y="197.678779" style="fill: #ffffff; fill-opacity: 0.55"/>
    </g>
   </g>
   <g id="legend_1">
    <g id="patch_11">
     <path d="M 70.67 59.818594 
L 88.67 59.818594 
L 88.67 53.518594 
L 70.67 53.518594 
z
" style="fill: #d95926"/>
    </g>
    <g id="text_22">
     <text style="font-size: 9px; font-family: 'Helvetica Neue', 'Helvetica', 'Arial', 'DejaVu Sans'; text-anchor: start; fill: #ffffff" x="95.87" y="59.818594" transform="rotate(-0 95.87 59.818594)">Rust (kube-rs)</text>
    </g>
    <g id="patch_12">
     <path d="M 177.042969 59.818594 
L 195.042969 59.818594 
L 195.042969 53.518594 
L 177.042969 53.518594 
z
" style="fill: #3987e5"/>
    </g>
    <g id="text_23">
     <text style="font-size: 9px; font-family: 'Helvetica Neue', 'Helvetica', 'Arial', 'DejaVu Sans'; text-anchor: start; fill: #ffffff" x="202.242969" y="59.818594" transform="rotate(-0 202.242969 59.818594)">Go (client-go)</text>
    </g>
   </g>
  </g>
 </g>
 <defs>
  <clipPath id="p68e7d4b42f">
   <rect x="62.57" y="44.88" width="502.63" height="232.376"/>
  </clipPath>
 </defs>
</svg>
