<?xml version="1.0" encoding="utf-8" standalone="no"?>
<!DOCTYPE svg PUBLIC "-//W3C//DTD SVG 1.1//EN"
  "http://www.w3.org/Graphics/SVG/1.1/DTD/svg11.dtd">
<svg xmlns:xlink="http://www.w3.org/1999/xlink" width="576pt" height="302.4pt" viewBox="0 0 576 302.4" xmlns="http://www.w3.org/2000/svg" version="1.1">
 <metadata>
  <rdf:RDF xmlns:dc="http://purl.org/dc/elements/1.1/" xmlns:cc="http://creativecommons.org/ns#" xmlns:rdf="http://www.w3.org/1999/02/22-rdf-syntax-ns#">
   <cc:Work>
    <dc:type rdf:resource="http://purl.org/dc/dcmitype/StillImage"/>
    <dc:date>2026-10-02T05:40:54.601128</dc:date>
    <dc:format>image/svg+xml</dc:format>
    <dc:creator>
     <cc:Agent>
      <dc:title>Matplotlib v3.10.1+dfsg1, https://matplotlib.org/</dc:title>
     </cc:Agent>
    </dc:creator>
   </cc:Work>
  </rdf:RDF>
 </metadata>
 <defs>
  <style type="text/css">*{stroke-linejoin: round; stroke-linecap: butt}</style>
 </defs>
 <g id="figure_1">
  <g id="patch_1">
   <path d="M 0 302.4 
L 576 302.4 
L 576 0 
L 0 0 
L 0 302.4 
z
" style="fill: none"/>
  </g>
  <g id="axes_1">
   <g id="patch_2">
    <path d="M 44.66 262.856 
L 565.2 262.856 
L 565.2 44.88 
L 44.66 44.88 
L 44.66 262.856 
z
" style="fill: none"/>
   </g>
   <g id="matplotlib.axis_1">
    <g id="xtick_1">
     <g id="line2d_1">
      <defs>
       <path id="m8b86e3ef3d" d="M 0 0 
L 0 3.5 
" style="stroke: #c3c2b7; stroke-width: 0.8"/>
      </defs>
      <g>
       <use xlink:href="#m8b86e3ef3d" x="104.978656" y="262.856" style="fill: #c3c2b7; stroke: #c3c2b7; stroke-width: 0.8"/>
      </g>
     </g>
     <g id="text_1">
      <text style="font-size: 10px; font-family: 'Helvetica Neue', 'Helvetica', 'Arial', 'DejaVu Sans'; fill: #c3c2b7" transform="translate(72.820062 277.454438)">Before churn</text>
      <text style="font-size: 10px; font-family: 'Helvetica Neue', 'Helvetica', 'Arial', 'DejaVu Sans'; fill: #c3c2b7" transform="translate(80.134124 288.65225)">(baseline)</text>
     </g>
    </g>
    <g id="xtick_2">
     <g id="line2d_2">
      <g>
       <use xlink:href="#m8b86e3ef3d" x="238.279552" y="262.856" style="fill: #c3c2b7; stroke: #c3c2b7; stroke-width: 0.8"/>
      </g>
     </g>
     <g id="text_2">
      <text style="font-size: 10px; font-family: 'Helvetica Neue', 'Helvetica', 'Arial', 'DejaVu Sans'; fill: #c3c2b7" transform="translate(215.914708 277.454438)">0-10 min</text>
      <text style="font-size: 10px; font-family: 'Helvetica Neue', 'Helvetica', 'Arial', 'DejaVu Sans'; fill: #c3c2b7" transform="translate(210.638146 288.65225)">after churn</text>
     </g>
    </g>
    <g id="xtick_3">
     <g id="line2d_3">
      <g>
       <use xlink:href="#m8b86e3ef3d" x="371.580448" y="262.856" style="fill: #c3c2b7; stroke: #c3c2b7; stroke-width: 0.8"/>
      </g>
     </g>
     <g id="text_3">
      <text style="font-size: 10px; font-family: 'Helvetica Neue', 'Helvetica', 'Arial', 'DejaVu Sans'; fill: #c3c2b7" transform="translate(346.034354 277.454438)">10-30 min</text>
      <text style="font-size: 10px; font-family: 'Helvetica Neue', 'Helvetica', 'Arial', 'DejaVu Sans'; fill: #c3c2b7" transform="translate(343.939042 288.65225)">after churn</text>
     </g>
    </g>
    <g id="xtick_4">
     <g id="line2d_4">
      <g>
       <use xlink:href="#m8b86e3ef3d" x="504.881344" y="262.856" style="fill: #c3c2b7; stroke: #c3c2b7; stroke-width: 0.8"/>
      </g>
     </g>
     <g id="text_4">
      <text style="font-size: 10px; font-family: 'Helvetica Neue', 'Helvetica', 'Arial', 'DejaVu Sans'; fill: #c3c2b7" transform="translate(479.335251 277.454438)">30-60 min</text>
      <text style="font-size: 10px; font-family: 'Helvetica Neue', 'Helvetica', 'Arial', 'DejaVu Sans'; fill: #c3c2b7" transform="translate(477.239938 288.65225)">after churn</text>
     </g>
    </g>
   </g>
   <g id="matplotlib.axis_2">
    <g id="ytick_1">
     <g id="line2d_5">
      <path d="M 44.66 262.856 
L 565.2 262.856 
" clip-path="url(#pdb67e2a19e)" style="fill: none; stroke: #4a4944; stroke-width: 0.6; stroke-linecap: square"/>
     </g>
     <g id="line2d_6">
      <defs>
       <path id="m555b14531f" d="M 0 0 
L -3.5 0 
" style="stroke: #c3c2b7; stroke-width: 0.8"/>
      </defs>
      <g>
       <use xlink:href="#m555b14531f" x="44.66" y="262.856" style="fill: #c3c2b7; stroke: #c3c2b7; stroke-width: 0.8"/>
      </g>
     </g>
     <g id="text_5">
      <text style="font-size: 10px; font-family: 'Helvetica Neue', 'Helvetica', 'Arial', 'DejaVu Sans'; text-anchor: end; fill: #c3c2b7" x="37.66" y="266.655219" transform="rotate(-0 37.66 266.655219)">0</text>
     </g>
    </g>
    <g id="ytick_2">
     <g id="line2d_7">
      <path d="M 44.66 231.251363 
L 565.2 231.251363 
" clip-path="url(#pdb67e2a19e)" style="fill: none; stroke: #4a4944; stroke-width: 0.6; stroke-linecap: square"/>
     </g>
     <g id="line2d_8">
      <g>
       <use xlink:href="#m555b14531f" x="44.66" y="231.251363" style="fill: #c3c2b7; stroke: #c3c2b7; stroke-width: 0.8"/>
      </g>
     </g>
     <g id="text_6">
      <text style="font-size: 10px; font-family: 'Helvetica Neue', 'Helvetica', 'Arial', 'DejaVu Sans'; text-anchor: end; fill: #c3c2b7" x="37.66" y="235.050582" transform="rotate(-0 37.66 235.050582)">5</text>
     </g>
    </g>
    <g id="ytick_3">
     <g id="line2d_9">
      <path d="M 44.66 199.646726 
L 565.2 199.646726 
" clip-path="url(#pdb67e2a19e)" style="fill: none; stroke: #4a4944; stroke-width: 0.6; stroke-linecap: square"/>
     </g>
     <g id="line2d_10">
      <g>
       <use xlink:href="#m555b14531f" x="44.66" y="199.646726" style="fill: #c3c2b7; stroke: #c3c2b7; stroke-width: 0.8"/>
      </g>
     </g>
     <g id="text_7">
      <text style="font-size: 10px; font-family: 'Helvetica Neue', 'Helvetica', 'Arial', 'DejaVu Sans'; text-anchor: end; fill: #c3c2b7" x="37.66" y="203.445945" transform="rotate(-0 37.66 203.445945)">10</text>
     </g>
    </g>
    <g id="ytick_4">
     <g id="line2d_11">
      <path d="M 44.66 168.04209 
L 565.2 168.04209 
" clip-path="url(#pdb67e2a19e)" style="fill: none; stroke: #4a4944; stroke-width: 0.6; stroke-linecap: square"/>
     </g>
     <g id="line2d_12">
      <g>
       <use xlink:href="#m555b14531f" x="44.66" y="168.04209" style="fill: #c3c2b7; stroke: #c3c2b7; stroke-width: 0.8"/>
      </g>
     </g>
     <g id="text_8">
      <text style="font-size: 10px; font-family: 'Helvetica Neue', 'Helvetica', 'Arial', 'DejaVu Sans'; text-anchor: end; fill: #c3c2b7" x="37.66" y="171.841308" transform="rotate(-0 37.66 171.841308)">15</text>
     </g>
    </g>
    <g id="ytick_5">
     <g id="line2d_13">
      <path d="M 44.66 136.437453 
L 565.2 136.437453 
" clip-path="url(#pdb67e2a19e)" style="fill: none; stroke: #4a4944; stroke-width: 0.6; stroke-linecap: square"/>
     </g>
     <g id="line2d_14">
      <g>
       <use xlink:href="#m555b14531f" x="44.66" y="136.437453" style="fill: #c3c2b7; stroke: #c3c2b7; stroke-width: 0.8"/>
      </g>
     </g>
     <g id="text_9">
      <text style="font-size: 10px; font-family: 'Helvetica Neue', 'Helvetica', 'Arial', 'DejaVu Sans'; text-anchor: end; fill: #c3c2b7" x="37.66" y="140.236671" transform="rotate(-0 37.66 140.236671)">20</text>
     </g>
    </g>
    <g id="ytick_6">
     <g id="line2d_15">
      <path d="M 44.66 104.832816 
L 565.2 104.832816 
" clip-path="url(#pdb67e2a19e)" style="fill: none; stroke: #4a4944; stroke-width: 0.6; stroke-linecap: square"/>
     </g>
     <g id="line2d_16">
      <g>
       <use xlink:href="#m555b14531f" x="44.66" y="104.832816" style="fill: #c3c2b7; stroke: #c3c2b7; stroke-width: 0.8"/>
      </g>
     </g>
     <g id="text_10">
      <text style="font-size: 10px; font-family: 'Helvetica Neue', 'Helvetica', 'Arial', 'DejaVu Sans'; text-anchor: end; fill: #c3c2b7" x="37.66" y="108.632035" transform="rotate(-0 37.66 108.632035)">25</text>
     </g>
    </g>
    <g id="ytick_7">
     <g id="line2d_17">
      <path d="M 44.66 73.228179 
L 565.2 73.228179 
" clip-path="url(#pdb67e2a19e)" style="fill: none; stroke: #4a4944; stroke-width: 0.6; stroke-linecap: square"/>
     </g>
     <g id="line2d_18">
      <g>
       <use xlink:href="#m555b14531f" x="44.66" y="73.228179" style="fill: #c3c2b7; stroke: #c3c2b7; stroke-width: 0.8"/>
      </g>
     </g>
     <g id="text_11">
      <text style="font-size: 10px; font-family: 'Helvetica Neue', 'Helvetica', 'Arial', 'DejaVu Sans'; text-anchor: end; fill: #c3c2b7" x="37.66" y="77.027398" transform="rotate(-0 37.66 77.027398)">30</text>
     </g>
    </g>
    <g id="text_12">
     <text style="font-size: 10px; font-family: 'Helvetica Neue', 'Helvetica', 'Arial', 'DejaVu Sans'; text-anchor: middle; fill: #c3c2b7" x="18.855313" y="153.868" transform="rotate(-90 18.855313 153.868)">GC cycles / hour</text>
    </g>
   </g>
   <g id="patch_3">
    <path d="M 68.320909 262.856 
L 141.636402 262.856 
L 141.636402 262.856 
L 68.320909 262.856 
z
" clip-path="url(#pdb67e2a19e)" style="fill: #3987e5"/>
   </g>
   <g id="patch_4">
    <path d="M 201.621805 262.856 
L 274.937298 262.856 
L 274.937298 101.722493 
L 201.621805 101.722493 
z
" clip-path="url(#pdb67e2a19e)" style="fill: #3987e5"/>
   </g>
   <g id="patch_5">
    <path d="M 334.922702 262.856 
L 408.238195 262.856 
L 408.238195 96.964431 
L 334.922702 96.964431 
z
" clip-path="url(#pdb67e2a19e)" style="fill: #3987e5"/>
   </g>
   <g id="patch_6">
    <path d="M 468.223598 262.856 
L 541.539091 262.856 
L 541.539091 111.171812 
L 468.223598 111.171812 
z
" clip-path="url(#pdb67e2a19e)" style="fill: #3987e5"/>
   </g>
   <g id="patch_7">
    <path d="M 44.66 262.856 
L 44.66 44.88 
" style="fill: none; stroke: #4a4944; stroke-width: 0.8; stroke-linejoin: miter; stroke-linecap: square"/>
   </g>
   <g id="patch_8">
    <path d="M 44.66 262.856 
L 565.2 262.856 
" style="fill: none; stroke: #4a4944; stroke-width: 0.8; stroke-linejoin: miter; stroke-linecap: square"/>
   </g>
   <g id="text_13">
    <text style="font-size: 8px; font-family: 'Helvetica Neue', 'Helvetica', 'Arial', 'DejaVu Sans'; text-anchor: middle; fill: #c3c2b7" x="104.978656" y="259.856" transform="rotate(-0 104.978656 259.856)">0</text>
   </g>
   <g id="text_14">
    <text style="font-size: 8px; font-family: 'Helvetica Neue', 'Helvetica', 'Arial', 'DejaVu Sans'; text-anchor: middle; fill: #c3c2b7" x="238.279552" y="68.588061" transform="rotate(-0 238.279552 68.588061)">25.5</text>
   </g>
   <g id="text_15">
    <text style="font-size: 8px; font-family: 'Helvetica Neue', 'Helvetica', 'Arial', 'DejaVu Sans'; text-anchor: middle; fill: #c3c2b7" x="371.580448" y="78.887507" transform="rotate(-0 371.580448 78.887507)">26.2</text>
   </g>
   <g id="text_16">
    <text style="font-size: 8px; font-family: 'Helvetica Neue', 'Helvetica', 'Arial', 'DejaVu Sans'; text-anchor: middle; fill: #c3c2b7" x="504.881344" y="108.167614" transform="rotate(-0 504.881344 108.167614)">24.0</text>
   </g>
   <g id="text_17">
    <text style="font-size: 8.5px; font-family: 'Helvetica Neue', 'Helvetica', 'Arial', 'DejaVu Sans'; text-anchor: start; fill: #c3c2b7" x="44.66" y="38.752746" transform="rotate(-0 44.66 38.752746)">Self-reported by the Go runtime (runtime/metrics). Rust has no collector.</text>
   </g>
   <g id="text_18">
    <text style="font-weight: 700; font-size: 13px; font-family: 'Helvetica Neue', 'Helvetica', 'Arial', 'DejaVu Sans'; text-anchor: start; fill: #ffffff" x="44.66" y="20.88" transform="rotate(-0 44.66 20.88)">Go garbage collections per hour</text>
   </g>
   <g id="PathCollection_1">
    <defs>
     <path id="C0_0_aa6d5dbc49" d="M 0 1.581139 
C 0.419323 1.581139 0.821528 1.41454 1.118034 1.118034 
C 1.41454 0.821528 1.581139 0.419323 1.581139 -0 
C 1.581139 -0.419323 1.41454 -0.821528 1.118034 -1.118034 
C 0.821528 -1.41454 0.419323 -1.581139 0 -1.581139 
C -0.419323 -1.581139 -0.821528 -1.41454 -1.118034 -1.118034 
C -1.41454 -0.821528 -1.581139 -0.419323 -1.581139 0 
C -1.581139 0.419323 -1.41454 0.821528 -1.118034 1.118034 
C -0.821528 1.41454 -0.419323 1.581139 0 1.581139 
z
"/>
    </defs>
    <g clip-path="url(#pdb67e2a19e)">
     <use xlink:href="#C0_0_aa6d5dbc49" x="104.978656" y="262.856" style="fill: #ffffff; fill-opacity: 0.55"/>
    </g>
    <g clip-path="url(#pdb67e2a19e)">
     <use xlink:href="#C0_0_aa6d5dbc49" x="104.978656" y="262.856" style="fill: #ffffff; fill-opacity: 0.55"/>
    </g>
    <g clip-path="url(#pdb67e2a19e)">
     <use xlink:href="#C0_0_aa6d5dbc49" x="104.978656" y="262.856" style="fill: #ffffff; fill-opacity: 0.55"/>
    </g>
    <g clip-path="url(#pdb67e2a19e)">
     <use xlink:href="#C0_0_aa6d5dbc49" x="104.978656" y="262.856" style="fill: #ffffff; fill-opacity: 0.55"/>
    </g>
   </g>
   <g id="PathCollection_2">
    <defs>
     <path id="C1_0_07ad6372d7" d="M 0 1.581139 
C 0.419323 1.581139 0.821528 1.41454 1.118034 1.118034 
C 1.41454 0.821528 1.581139 0.419323 1.581139 -0 
C 1.581139 -0.419323 1.41454 -0.821528 1.118034 -1.118034 
C 0.821528 -1.41454 0.419323 -1.581139 0 -1.581139 
C -0.419323 -1.581139 -0.821528 -1.41454 -1.118034 -1.118034 
C -1.41454 -0.821528 -1.581139 -0.419323 -1.581139 0 
C -1.581139 0.419323 -1.41454 0.821528 -1.118034 1.118034 
C -0.821528 1.41454 -0.419323 1.581139 0 1.581139 
z
"/>
    </defs>
    <g clip-path="url(#pdb67e2a19e)">
     <use xlink:href="#C1_0_07ad6372d7" x="238.279552" y="73.311652" style="fill: #ffffff; fill-opacity: 0.55"/>
    </g>
    <g clip-path="url(#pdb67e2a19e)">
     <use xlink:href="#C1_0_07ad6372d7" x="238.279552" y="111.190354" style="fill: #ffffff; fill-opacity: 0.55"/>
    </g>
    <g clip-path="url(#pdb67e2a19e)">
     <use xlink:href="#C1_0_07ad6372d7" x="238.279552" y="111.189985" style="fill: #ffffff; fill-opacity: 0.55"/>
    </g>
    <g clip-path="url(#pdb67e2a19e)">
     <use xlink:href="#C1_0_07ad6372d7" x="238.279552" y="111.197982" style="fill: #ffffff; fill-opacity: 0.55"/>
    </g>
   </g>
   <g id="PathCollection_3">
    <defs>
     <path id="C2_0_0cbd0f8f85" d="M 0 1.581139 
C 0.419323 1.581139 0.821528 1.41454 1.118034 1.118034 
C 1.41454 0.821528 1.581139 0.419323 1.581139 -0 
C 1.581139 -0.419323 1.41454 -0.821528 1.118034 -1.118034 
C 0.821528 -1.41454 0.419323 -1.581139 0 -1.581139 
C -0.419323 -1.581139 -0.821528 -1.41454 -1.118034 -1.118034 
C -1.41454 -0.821528 -1.581139 -0.419323 -1.581139 0 
C -1.581139 0.419323 -1.41454 0.821528 -1.118034 1.118034 
C -0.821528 1.41454 -0.419323 1.581139 0 1.581139 
z
"/>
    </defs>
    <g clip-path="url(#pdb67e2a19e)">
     <use xlink:href="#C2_0_0cbd0f8f85" x="371.580448" y="111.179003" style="fill: #ffffff; fill-opacity: 0.55"/>
    </g>
    <g clip-path="url(#pdb67e2a19e)">
     <use xlink:href="#C2_0_0cbd0f8f85" x="371.580448" y="92.226107" style="fill: #ffffff; fill-opacity: 0.55"/>
    </g>
    <g clip-path="url(#pdb67e2a19e)">
     <use xlink:href="#C2_0_0cbd0f8f85" x="371.580448" y="92.224782" style="fill: #ffffff; fill-opacity: 0.55"/>
    </g>
    <g clip-path="url(#pdb67e2a19e)">
     <use xlink:href="#C2_0_0cbd0f8f85" x="371.580448" y="92.227831" style="fill: #ffffff; fill-opacity: 0.55"/>
    </g>
   </g>
   <g id="PathCollection_4">
    <defs>
     <path id="C3_0_11d1d8db0a" d="M 0 1.581139 
C 0.419323 1.581139 0.821528 1.41454 1.118034 1.118034 
C 1.41454 0.821528 1.581139 0.419323 1.581139 -0 
C 1.581139 -0.419323 1.41454 -0.821528 1.118034 -1.118034 
C 0.821528 -1.41454 0.419323 -1.581139 0 -1.581139 
C -0.419323 -1.581139 -0.821528 -1.41454 -1.118034 -1.118034 
C -1.41454 -0.821528 -1.581139 -0.419323 -1.581139 0 
C -1.581139 0.419323 -1.41454 0.821528 -1.118034 1.118034 
C -0.821528 1.41454 -0.419323 1.581139 0 1.581139 
z
"/>
    </defs>
    <g clip-path="url(#pdb67e2a19e)">
     <use xlink:href="#C3_0_11d1d8db0a" x="504.881344" y="111.168971" style="fill: #ffffff; fill-opacity: 0.55"/>
    </g>
    <g clip-path="url(#pdb67e2a19e)">
     <use xlink:href="#C3_0_11d1d8db0a" x="504.881344" y="111.17456" style="fill: #ffffff; fill-opacity: 0.55"/>
    </g>
    <g clip-path="url(#pdb67e2a19e)">
     <use xlink:href="#C3_0_11d1d8db0a" x="504.881344" y="111.173481" style="fill: #ffffff; fill-opacity: 0.55"/>
    </g>
    <g clip-path="url(#pdb67e2a19e)">
     <use xlink:href="#C3_0_11d1d8db0a" x="504.881344" y="111.170237" style="fill: #ffffff; fill-opacity: 0.55"/>
    </g>
   </g>
  </g>
 </g>
 <defs>
  <clipPath id="pdb67e2a19e">
   <rect x="44.66" y="44.88" width="520.54" height="217.976"/>
  </clipPath>
 </defs>
</svg>
