<?xml version="1.0" encoding="utf-8" standalone="no"?>
<!DOCTYPE svg PUBLIC "-//W3C//DTD SVG 1.1//EN"
  "http://www.w3.org/Graphics/SVG/1.1/DTD/svg11.dtd">
<svg xmlns:xlink="http://www.w3.org/1999/xlink" width="648pt" height="331.2pt" viewBox="0 0 648 331.2" xmlns="http://www.w3.org/2000/svg" version="1.1">
 <metadata>
  <rdf:RDF xmlns:dc="http://purl.org/dc/elements/1.1/" xmlns:cc="http://creativecommons.org/ns#" xmlns:rdf="http://www.w3.org/1999/02/22-rdf-syntax-ns#">
   <cc:Work>
    <dc:type rdf:resource="http://purl.org/dc/dcmitype/StillImage"/>
    <dc:date>2026-10-02T05:40:34.036350</dc:date>
    <dc:format>image/svg+xml</dc:format>
    <dc:creator>
     <cc:Agent>
      <dc:title>Matplotlib v3.10.1+dfsg1, https://matplotlib.org/</dc:title>
     </cc:Agent>
    </dc:creator>
   </cc:Work>
  </rdf:RDF>
 </metadata>
 <defs>
  <style type="text/css">*{stroke-linejoin: round; stroke-linecap: butt}</style>
 </defs>
 <g id="figure_1">
  <g id="patch_1">
   <path d="M 0 331.2 
L 648 331.2 
L 648 0 
L 0 0 
L 0 331.2 
z
" style="fill: none"/>
  </g>
  <g id="axes_1">
   <g id="patch_2">
    <path d="M 47.81 291.656 
L 637.2 291.656 
L 637.2 44.88 
L 47.81 44.88 
L 47.81 291.656 
z
" style="fill: none"/>
   </g>
   <g id="matplotlib.axis_1">
    <g id="xtick_1">
     <g id="line2d_1">
      <defs>
       <path id="m226325024d" d="M 0 0 
L 0 3.5 
" style="stroke: #c3c2b7; stroke-width: 0.8"/>
      </defs>
      <g>
       <use xlink:href="#m226325024d" x="128.181364" y="291.656" style="fill: #c3c2b7; stroke: #c3c2b7; stroke-width: 0.8"/>
      </g>
     </g>
     <g id="text_1">
      <text style="font-size: 10px; font-family: 'Helvetica Neue', 'Helvetica', 'Arial', 'DejaVu Sans'; fill: #c3c2b7" transform="translate(96.02277 306.254437)">Before churn</text>
      <text style="font-size: 10px; font-family: 'Helvetica Neue', 'Helvetica', 'Arial', 'DejaVu Sans'; fill: #c3c2b7" transform="translate(103.336832 317.45225)">(baseline)</text>
     </g>
    </g>
    <g id="xtick_2">
     <g id="line2d_2">
      <g>
       <use xlink:href="#m226325024d" x="271.063788" y="291.656" style="fill: #c3c2b7; stroke: #c3c2b7; stroke-width: 0.8"/>
      </g>
     </g>
     <g id="text_2">
      <text style="font-size: 10px; font-family: 'Helvetica Neue', 'Helvetica', 'Arial', 'DejaVu Sans'; fill: #c3c2b7" transform="translate(248.698944 306.254437)">0-10 min</text>
      <text style="font-size: 10px; font-family: 'Helvetica Neue', 'Helvetica', 'Arial', 'DejaVu Sans'; fill: #c3c2b7" transform="translate(243.422382 317.45225)">after churn</text>
     </g>
    </g>
    <g id="xtick_3">
     <g id="line2d_3">
      <g>
       <use xlink:href="#m226325024d" x="413.946212" y="291.656" style="fill: #c3c2b7; stroke: #c3c2b7; stroke-width: 0.8"/>
      </g>
     </g>
     <g id="text_3">
      <text style="font-size: 10px; font-family: 'Helvetica Neue', 'Helvetica', 'Arial', 'DejaVu Sans'; fill: #c3c2b7" transform="translate(388.400118 306.254437)">10-30 min</text>
      <text style="font-size: 10px; font-family: 'Helvetica Neue', 'Helvetica', 'Arial', 'DejaVu Sans'; fill: #c3c2b7" transform="translate(386.304806 317.45225)">after churn</text>
     </g>
    </g>
    <g id="xtick_4">
     <g id="line2d_4">
      <g>
       <use xlink:href="#m226325024d" x="556.828636" y="291.656" style="fill: #c3c2b7; stroke: #c3c2b7; stroke-width: 0.8"/>
      </g>
     </g>
     <g id="text_4">
      <text style="font-size: 10px; font-family: 'Helvetica Neue', 'Helvetica', 'Arial', 'DejaVu Sans'; fill: #c3c2b7" transform="translate(531.282543 306.254437)">30-60 min</text>
      <text style="font-size: 10px; font-family: 'Helvetica Neue', 'Helvetica', 'Arial', 'DejaVu Sans'; fill: #c3c2b7" transform="translate(529.18723 317.45225)">after churn</text>
     </g>
    </g>
   </g>
   <g id="matplotlib.axis_2">
    <g id="ytick_1">
     <g id="line2d_5">
      <path d="M 47.81 291.656 
L 637.2 291.656 
" clip-path="url(#pd29671a1e1)" style="fill: none; stroke: #4a4944; stroke-width: 0.6; stroke-linecap: square"/>
     </g>
     <g id="line2d_6">
      <defs>
       <path id="m0f6383828a" d="M 0 0 
L -3.5 0 
" style="stroke: #c3c2b7; stroke-width: 0.8"/>
      </defs>
      <g>
       <use xlink:href="#m0f6383828a" x="47.81" y="291.656" style="fill: #c3c2b7; stroke: #c3c2b7; stroke-width: 0.8"/>
      </g>
     </g>
     <g id="text_5">
      <text style="font-size: 10px; font-family: 'Helvetica Neue', 'Helvetica', 'Arial', 'DejaVu Sans'; text-anchor: end; fill: #c3c2b7" x="40.81" y="295.455219" transform="rotate(-0 40.81 295.455219)">0.0</text>
     </g>
    </g>
    <g id="ytick_2">
     <g id="line2d_7">
      <path d="M 47.81 257.220465 
L 637.2 257.220465 
" clip-path="url(#pd29671a1e1)" style="fill: none; stroke: #4a4944; stroke-width: 0.6; stroke-linecap: square"/>
     </g>
     <g id="line2d_8">
      <g>
       <use xlink:href="#m0f6383828a" x="47.81" y="257.220465" style="fill: #c3c2b7; stroke: #c3c2b7; stroke-width: 0.8"/>
      </g>
     </g>
     <g id="text_6">
      <text style="font-size: 10px; font-family: 'Helvetica Neue', 'Helvetica', 'Arial', 'DejaVu Sans'; text-anchor: end; fill: #c3c2b7" x="40.81" y="261.019684" transform="rotate(-0 40.81 261.019684)">0.5</text>
     </g>
    </g>
    <g id="ytick_3">
     <g id="line2d_9">
      <path d="M 47.81 222.78493 
L 637.2 222.78493 
" clip-path="url(#pd29671a1e1)" style="fill: none; stroke: #4a4944; stroke-width: 0.6; stroke-linecap: square"/>
     </g>
     <g id="line2d_10">
      <g>
       <use xlink:href="#m0f6383828a" x="47.81" y="222.78493" style="fill: #c3c2b7; stroke: #c3c2b7; stroke-width: 0.8"/>
      </g>
     </g>
     <g id="text_7">
      <text style="font-size: 10px; font-family: 'Helvetica Neue', 'Helvetica', 'Arial', 'DejaVu Sans'; text-anchor: end; fill: #c3c2b7" x="40.81" y="226.584149" transform="rotate(-0 40.81 226.584149)">1.0</text>
     </g>
    </g>
    <g id="ytick_4">
     <g id="line2d_11">
      <path d="M 47.81 188.349395 
L 637.2 188.349395 
" clip-path="url(#pd29671a1e1)" style="fill: none; stroke: #4a4944; stroke-width: 0.6; stroke-linecap: square"/>
     </g>
     <g id="line2d_12">
      <g>
       <use xlink:href="#m0f6383828a" x="47.81" y="188.349395" style="fill: #c3c2b7; stroke: #c3c2b7; stroke-width: 0.8"/>
      </g>
     </g>
     <g id="text_8">
      <text style="font-size: 10px; font-family: 'Helvetica Neue', 'Helvetica', 'Arial', 'DejaVu Sans'; text-anchor: end; fill: #c3c2b7" x="40.81" y="192.148613" transform="rotate(-0 40.81 192.148613)">1.5</text>
     </g>
    </g>
    <g id="ytick_5">
     <g id="line2d_13">
      <path d="M 47.81 153.91386 
L 637.2 153.91386 
" clip-path="url(#pd29671a1e1)" style="fill: none; stroke: #4a4944; stroke-width: 0.6; stroke-linecap: square"/>
     </g>
     <g id="line2d_14">
      <g>
       <use xlink:href="#m0f6383828a" x="47.81" y="153.91386" style="fill: #c3c2b7; stroke: #c3c2b7; stroke-width: 0.8"/>
      </g>
     </g>
     <g id="text_9">
      <text style="font-size: 10px; font-family: 'Helvetica Neue', 'Helvetica', 'Arial', 'DejaVu Sans'; text-anchor: end; fill: #c3c2b7" x="40.81" y="157.713078" transform="rotate(-0 40.81 157.713078)">2.0</text>
     </g>
    </g>
    <g id="ytick_6">
     <g id="line2d_15">
      <path d="M 47.81 119.478325 
L 637.2 119.478325 
" clip-path="url(#pd29671a1e1)" style="fill: none; stroke: #4a4944; stroke-width: 0.6; stroke-linecap: square"/>
     </g>
     <g id="line2d_16">
      <g>
       <use xlink:href="#m0f6383828a" x="47.81" y="119.478325" style="fill: #c3c2b7; stroke: #c3c2b7; stroke-width: 0.8"/>
      </g>
     </g>
     <g id="text_10">
      <text style="font-size: 10px; font-family: 'Helvetica Neue', 'Helvetica', 'Arial', 'DejaVu Sans'; text-anchor: end; fill: #c3c2b7" x="40.81" y="123.277543" transform="rotate(-0 40.81 123.277543)">2.5</text>
     </g>
    </g>
    <g id="ytick_7">
     <g id="line2d_17">
      <path d="M 47.81 85.042789 
L 637.2 85.042789 
" clip-path="url(#pd29671a1e1)" style="fill: none; stroke: #4a4944; stroke-width: 0.6; stroke-linecap: square"/>
     </g>
     <g id="line2d_18">
      <g>
       <use xlink:href="#m0f6383828a" x="47.81" y="85.042789" style="fill: #c3c2b7; stroke: #c3c2b7; stroke-width: 0.8"/>
      </g>
     </g>
     <g id="text_11">
      <text style="font-size: 10px; font-family: 'Helvetica Neue', 'Helvetica', 'Arial', 'DejaVu Sans'; text-anchor: end; fill: #c3c2b7" x="40.81" y="88.842008" transform="rotate(-0 40.81 88.842008)">3.0</text>
     </g>
    </g>
    <g id="ytick_8">
     <g id="line2d_19">
      <path d="M 47.81 50.607254 
L 637.2 50.607254 
" clip-path="url(#pd29671a1e1)" style="fill: none; stroke: #4a4944; stroke-width: 0.6; stroke-linecap: square"/>
     </g>
     <g id="line2d_20">
      <g>
       <use xlink:href="#m0f6383828a" x="47.81" y="50.607254" style="fill: #c3c2b7; stroke: #c3c2b7; stroke-width: 0.8"/>
      </g>
     </g>
     <g id="text_12">
      <text style="font-size: 10px; font-family: 'Helvetica Neue', 'Helvetica', 'Arial', 'DejaVu Sans'; text-anchor: end; fill: #c3c2b7" x="40.81" y="54.406473" transform="rotate(-0 40.81 54.406473)">3.5</text>
     </g>
    </g>
    <g id="text_13">
     <text style="font-size: 10px; font-family: 'Helvetica Neue', 'Helvetica', 'Arial', 'DejaVu Sans'; text-anchor: middle; fill: #c3c2b7" x="18.827188" y="168.268" transform="rotate(-90 18.827188 168.268)">ms/min</text>
    </g>
   </g>
   <g id="line2d_21">
    <path d="M 47.81 291.656 
L 637.2 291.656 
" clip-path="url(#pd29671a1e1)" style="fill: none; stroke: #c3c2b7; stroke-width: 0.8; stroke-linecap: square"/>
   </g>
   <g id="patch_3">
    <path d="M 74.600455 291.656 
L 126.038127 291.656 
L 126.038127 266.446921 
L 74.600455 266.446921 
z
" clip-path="url(#pd29671a1e1)" style="fill: #d95926"/>
   </g>
   <g id="patch_4">
    <path d="M 217.482879 291.656 
L 268.920552 291.656 
L 268.920552 271.473272 
L 217.482879 271.473272 
z
" clip-path="url(#pd29671a1e1)" style="fill: #d95926"/>
   </g>
   <g id="patch_5">
    <path d="M 360.365303 291.656 
L 411.802976 291.656 
L 411.802976 265.056761 
L 360.365303 265.056761 
z
" clip-path="url(#pd29671a1e1)" style="fill: #d95926"/>
   </g>
   <g id="patch_6">
    <path d="M 503.247727 291.656 
L 554.6854 291.656 
L 554.6854 268.164394 
L 503.247727 268.164394 
z
" clip-path="url(#pd29671a1e1)" style="fill: #d95926"/>
   </g>
   <g id="patch_7">
    <path d="M 130.3246 291.656 
L 181.762273 291.656 
L 181.762273 233.150646 
L 130.3246 233.150646 
z
" clip-path="url(#pd29671a1e1)" style="fill: #3987e5"/>
   </g>
   <g id="patch_8">
    <path d="M 273.207024 291.656 
L 324.644697 291.656 
L 324.644697 127.875744 
L 273.207024 127.875744 
z
" clip-path="url(#pd29671a1e1)" style="fill: #3987e5"/>
   </g>
   <g id="patch_9">
    <path d="M 416.089448 291.656 
L 467.527121 291.656 
L 467.527121 138.867335 
L 416.089448 138.867335 
z
" clip-path="url(#pd29671a1e1)" style="fill: #3987e5"/>
   </g>
   <g id="patch_10">
    <path d="M 558.971873 291.656 
L 610.409545 291.656 
L 610.409545 129.847817 
L 558.971873 129.847817 
z
" clip-path="url(#pd29671a1e1)" style="fill: #3987e5"/>
   </g>
   <g id="patch_11">
    <path d="M 47.81 291.656 
L 47.81 44.88 
" style="fill: none; stroke: #4a4944; stroke-width: 0.8; stroke-linejoin: miter; stroke-linecap: square"/>
   </g>
   <g id="patch_12">
    <path d="M 47.81 291.656 
L 637.2 291.656 
" style="fill: none; stroke: #4a4944; stroke-width: 0.8; stroke-linejoin: miter; stroke-linecap: square"/>
   </g>
   <g id="LineCollection_1">
    <path d="M 100.319291 269.157093 
L 100.319291 263.73675 
" clip-path="url(#pd29671a1e1)" style="fill: none; stroke: #ffffff"/>
   </g>
   <g id="line2d_22">
    <defs>
     <path id="m43d74dffdf" d="M 3 0 
L -3 -0 
" style="stroke: #ffffff"/>
    </defs>
    <g clip-path="url(#pd29671a1e1)">
     <use xlink:href="#m43d74dffdf" x="100.319291" y="269.157093" style="fill: #ffffff; stroke: #ffffff"/>
    </g>
   </g>
   <g id="line2d_23">
    <g clip-path="url(#pd29671a1e1)">
     <use xlink:href="#m43d74dffdf" x="100.319291" y="263.73675" style="fill: #ffffff; stroke: #ffffff"/>
    </g>
   </g>
   <g id="text_14">
    <text style="font-size: 7.5px; font-family: 'Helvetica Neue', 'Helvetica', 'Arial', 'DejaVu Sans'; text-anchor: middle; fill: #c3c2b7" x="100.319291" y="260.73675" transform="rotate(-0 100.319291 260.73675)">0.37</text>
   </g>
   <g id="LineCollection_2">
    <path d="M 243.201715 273.450046 
L 243.201715 269.496498 
" clip-path="url(#pd29671a1e1)" style="fill: none; stroke: #ffffff"/>
   </g>
   <g id="line2d_24">
    <g clip-path="url(#pd29671a1e1)">
     <use xlink:href="#m43d74dffdf" x="243.201715" y="273.450046" style="fill: #ffffff; stroke: #ffffff"/>
    </g>
   </g>
   <g id="line2d_25">
    <g clip-path="url(#pd29671a1e1)">
     <use xlink:href="#m43d74dffdf" x="243.201715" y="269.496498" style="fill: #ffffff; stroke: #ffffff"/>
    </g>
   </g>
   <g id="text_15">
    <text style="font-size: 7.5px; font-family: 'Helvetica Neue', 'Helvetica', 'Arial', 'DejaVu Sans'; text-anchor: middle; fill: #c3c2b7" x="243.201715" y="266.496498" transform="rotate(-0 243.201715 266.496498)">0.29</text>
   </g>
   <g id="LineCollection_3">
    <path d="M 386.084139 271.299479 
L 386.084139 258.814044 
" clip-path="url(#pd29671a1e1)" style="fill: none; stroke: #ffffff"/>
   </g>
   <g id="line2d_26">
    <g clip-path="url(#pd29671a1e1)">
     <use xlink:href="#m43d74dffdf" x="386.084139" y="271.299479" style="fill: #ffffff; stroke: #ffffff"/>
    </g>
   </g>
   <g id="line2d_27">
    <g clip-path="url(#pd29671a1e1)">
     <use xlink:href="#m43d74dffdf" x="386.084139" y="258.814044" style="fill: #ffffff; stroke: #ffffff"/>
    </g>
   </g>
   <g id="text_16">
    <text style="font-size: 7.5px; font-family: 'Helvetica Neue', 'Helvetica', 'Arial', 'DejaVu Sans'; text-anchor: middle; fill: #c3c2b7" x="386.084139" y="255.814044" transform="rotate(-0 386.084139 255.814044)">0.39</text>
   </g>
   <g id="LineCollection_4">
    <path d="M 528.966564 271.653736 
L 528.966564 264.675053 
" clip-path="url(#pd29671a1e1)" style="fill: none; stroke: #ffffff"/>
   </g>
   <g id="line2d_28">
    <g clip-path="url(#pd29671a1e1)">
     <use xlink:href="#m43d74dffdf" x="528.966564" y="271.653736" style="fill: #ffffff; stroke: #ffffff"/>
    </g>
   </g>
   <g id="line2d_29">
    <g clip-path="url(#pd29671a1e1)">
     <use xlink:href="#m43d74dffdf" x="528.966564" y="264.675053" style="fill: #ffffff; stroke: #ffffff"/>
    </g>
   </g>
   <g id="text_17">
    <text style="font-size: 7.5px; font-family: 'Helvetica Neue', 'Helvetica', 'Arial', 'DejaVu Sans'; text-anchor: middle; fill: #c3c2b7" x="528.966564" y="261.675053" transform="rotate(-0 528.966564 261.675053)">0.34</text>
   </g>
   <g id="LineCollection_5">
    <path d="M 156.043436 240.681979 
L 156.043436 225.619313 
" clip-path="url(#pd29671a1e1)" style="fill: none; stroke: #ffffff"/>
   </g>
   <g id="line2d_30">
    <g clip-path="url(#pd29671a1e1)">
     <use xlink:href="#m43d74dffdf" x="156.043436" y="240.681979" style="fill: #ffffff; stroke: #ffffff"/>
    </g>
   </g>
   <g id="line2d_31">
    <g clip-path="url(#pd29671a1e1)">
     <use xlink:href="#m43d74dffdf" x="156.043436" y="225.619313" style="fill: #ffffff; stroke: #ffffff"/>
    </g>
   </g>
   <g id="text_18">
    <text style="font-size: 7.5px; font-family: 'Helvetica Neue', 'Helvetica', 'Arial', 'DejaVu Sans'; text-anchor: middle; fill: #c3c2b7" x="156.043436" y="222.619313" transform="rotate(-0 156.043436 222.619313)">0.85</text>
   </g>
   <g id="LineCollection_6">
    <path d="M 298.925861 173.227692 
L 298.925861 82.523797 
" clip-path="url(#pd29671a1e1)" style="fill: none; stroke: #ffffff"/>
   </g>
   <g id="line2d_32">
    <g clip-path="url(#pd29671a1e1)">
     <use xlink:href="#m43d74dffdf" x="298.925861" y="173.227692" style="fill: #ffffff; stroke: #ffffff"/>
    </g>
   </g>
   <g id="line2d_33">
    <g clip-path="url(#pd29671a1e1)">
     <use xlink:href="#m43d74dffdf" x="298.925861" y="82.523797" style="fill: #ffffff; stroke: #ffffff"/>
    </g>
   </g>
   <g id="text_19">
    <text style="font-size: 7.5px; font-family: 'Helvetica Neue', 'Helvetica', 'Arial', 'DejaVu Sans'; text-anchor: middle; fill: #c3c2b7" x="298.925861" y="79.523797" transform="rotate(-0 298.925861 79.523797)">2.38</text>
   </g>
   <g id="LineCollection_7">
    <path d="M 441.808285 152.524413 
L 441.808285 125.210257 
" clip-path="url(#pd29671a1e1)" style="fill: none; stroke: #ffffff"/>
   </g>
   <g id="line2d_34">
    <g clip-path="url(#pd29671a1e1)">
     <use xlink:href="#m43d74dffdf" x="441.808285" y="152.524413" style="fill: #ffffff; stroke: #ffffff"/>
    </g>
   </g>
   <g id="line2d_35">
    <g clip-path="url(#pd29671a1e1)">
     <use xlink:href="#m43d74dffdf" x="441.808285" y="125.210257" style="fill: #ffffff; stroke: #ffffff"/>
    </g>
   </g>
   <g id="text_20">
    <text style="font-size: 7.5px; font-family: 'Helvetica Neue', 'Helvetica', 'Arial', 'DejaVu Sans'; text-anchor: middle; fill: #c3c2b7" x="441.808285" y="122.210257" transform="rotate(-0 441.808285 122.210257)">2.22</text>
   </g>
   <g id="LineCollection_8">
    <path d="M 584.690709 157.737157 
L 584.690709 101.958478 
" clip-path="url(#pd29671a1e1)" style="fill: none; stroke: #ffffff"/>
   </g>
   <g id="line2d_36">
    <g clip-path="url(#pd29671a1e1)">
     <use xlink:href="#m43d74dffdf" x="584.690709" y="157.737157" style="fill: #ffffff; stroke: #ffffff"/>
    </g>
   </g>
   <g id="line2d_37">
    <g clip-path="url(#pd29671a1e1)">
     <use xlink:href="#m43d74dffdf" x="584.690709" y="101.958478" style="fill: #ffffff; stroke: #ffffff"/>
    </g>
   </g>
   <g id="text_21">
    <text style="font-size: 7.5px; font-family: 'Helvetica Neue', 'Helvetica', 'Arial', 'DejaVu Sans'; text-anchor: middle; fill: #c3c2b7" x="584.690709" y="98.958478" transform="rotate(-0 584.690709 98.958478)">2.35</text>
   </g>
   <g id="text_22">
    <text style="font-size: 8.5px; font-family: 'Helvetica Neue', 'Helvetica', 'Arial', 'DejaVu Sans'; text-anchor: start; fill: #c3c2b7" x="47.81" y="38.176746" transform="rotate(-0 47.81 38.176746)">Same as CPU, per minute.</text>
   </g>
   <g id="text_23">
    <text style="font-weight: 700; font-size: 13px; font-family: 'Helvetica Neue', 'Helvetica', 'Arial', 'DejaVu Sans'; text-anchor: start; fill: #ffffff" x="47.81" y="20.88" transform="rotate(-0 47.81 20.88)">CPU time</text>
   </g>
   <g id="line2d_38">
    <path d="M 100.319291 266.446921 
" clip-path="url(#pd29671a1e1)" style="fill: none; stroke: #ffffff; stroke-linecap: square"/>
   </g>
   <g id="line2d_39">
    <path d="M 243.201715 271.473272 
" clip-path="url(#pd29671a1e1)" style="fill: none; stroke: #ffffff; stroke-linecap: square"/>
   </g>
   <g id="line2d_40">
    <path d="M 386.084139 265.056761 
" clip-path="url(#pd29671a1e1)" style="fill: none; stroke: #ffffff; stroke-linecap: square"/>
   </g>
   <g id="line2d_41">
    <path d="M 528.966564 268.164394 
" clip-path="url(#pd29671a1e1)" style="fill: none; stroke: #ffffff; stroke-linecap: square"/>
   </g>
   <g id="line2d_42">
    <path d="M 156.043436 233.150646 
" clip-path="url(#pd29671a1e1)" style="fill: none; stroke: #ffffff; stroke-linecap: square"/>
   </g>
   <g id="line2d_43">
    <path d="M 298.925861 127.875744 
" clip-path="url(#pd29671a1e1)" style="fill: none; stroke: #ffffff; stroke-linecap: square"/>
   </g>
   <g id="line2d_44">
    <path d="M 441.808285 138.867335 
" clip-path="url(#pd29671a1e1)" style="fill: none; stroke: #ffffff; stroke-linecap: square"/>
   </g>
   <g id="line2d_45">
    <path d="M 584.690709 129.847817 
" clip-path="url(#pd29671a1e1)" style="fill: none; stroke: #ffffff; stroke-linecap: square"/>
   </g>
   <g id="PathCollection_1">
    <defs>
     <path id="C0_0_246dd612d4" d="M 0 1.581139 
C 0.419323 1.581139 0.821528 1.41454 1.118034 1.118034 
C 1.41454 0.821528 1.581139 0.419323 1.581139 -0 
C 1.581139 -0.419323 1.41454 -0.821528 1.118034 -1.118034 
C 0.821528 -1.41454 0.419323 -1.581139 0 -1.581139 
C -0.419323 -1.581139 -0.821528 -1.41454 -1.118034 -1.118034 
C -1.41454 -0.821528 -1.581139 -0.419323 -1.581139 0 
C -1.581139 0.419323 -1.41454 0.821528 -1.118034 1.118034 
C -0.821528 1.41454 -0.419323 1.581139 0 1.581139 
z
"/>
    </defs>
    <g clip-path="url(#pd29671a1e1)">
     <use xlink:href="#C0_0_246dd612d4" x="100.319291" y="268.09786" style="fill: #ffffff; fill-opacity: 0.55"/>
    </g>
    <g clip-path="url(#pd29671a1e1)">
     <use xlink:href="#C0_0_246dd612d4" x="100.319291" y="267.731827" style="fill: #ffffff; fill-opacity: 0.55"/>
    </g>
    <g clip-path="url(#pd29671a1e1)">
     <use xlink:href="#C0_0_246dd612d4" x="100.319291" y="264.881667" style="fill: #ffffff; fill-opacity: 0.55"/>
    </g>
    <g clip-path="url(#pd29671a1e1)">
     <use xlink:href="#C0_0_246dd612d4" x="100.319291" y="265.076332" style="fill: #ffffff; fill-opacity: 0.55"/>
    </g>
   </g>
   <g id="PathCollection_2">
    <defs>
     <path id="C1_0_6779b0554e" d="M 0 1.581139 
C 0.419323 1.581139 0.821528 1.41454 1.118034 1.118034 
C 1.41454 0.821528 1.581139 0.419323 1.581139 -0 
C 1.581139 -0.419323 1.41454 -0.821528 1.118034 -1.118034 
C 0.821528 -1.41454 0.419323 -1.581139 0 -1.581139 
C -0.419323 -1.581139 -0.821528 -1.41454 -1.118034 -1.118034 
C -1.41454 -0.821528 -1.581139 -0.419323 -1.581139 0 
C -1.581139 0.419323 -1.41454 0.821528 -1.118034 1.118034 
C -0.821528 1.41454 -0.419323 1.581139 0 1.581139 
z
"/>
    </defs>
    <g clip-path="url(#pd29671a1e1)">
     <use xlink:href="#C1_0_6779b0554e" x="243.201715" y="270.941449" style="fill: #ffffff; fill-opacity: 0.55"/>
    </g>
    <g clip-path="url(#pd29671a1e1)">
     <use xlink:href="#C1_0_6779b0554e" x="243.201715" y="272.195167" style="fill: #ffffff; fill-opacity: 0.55"/>
    </g>
    <g clip-path="url(#pd29671a1e1)">
     <use xlink:href="#C1_0_6779b0554e" x="243.201715" y="272.758306" style="fill: #ffffff; fill-opacity: 0.55"/>
    </g>
    <g clip-path="url(#pd29671a1e1)">
     <use xlink:href="#C1_0_6779b0554e" x="243.201715" y="269.998167" style="fill: #ffffff; fill-opacity: 0.55"/>
    </g>
   </g>
   <g id="PathCollection_3">
    <defs>
     <path id="C2_0_9abf1c1c19" d="M 0 1.581139 
C 0.419323 1.581139 0.821528 1.41454 1.118034 1.118034 
C 1.41454 0.821528 1.581139 0.419323 1.581139 -0 
C 1.581139 -0.419323 1.41454 -0.821528 1.118034 -1.118034 
C 0.821528 -1.41454 0.419323 -1.581139 0 -1.581139 
C -0.419323 -1.581139 -0.821528 -1.41454 -1.118034 -1.118034 
C -1.41454 -0.821528 -1.581139 -0.419323 -1.581139 0 
C -1.581139 0.419323 -1.41454 0.821528 -1.118034 1.118034 
C -0.821528 1.41454 -0.419323 1.581139 0 1.581139 
z
"/>
    </defs>
    <g clip-path="url(#pd29671a1e1)">
     <use xlink:href="#C2_0_9abf1c1c19" x="386.084139" y="259.920317" style="fill: #ffffff; fill-opacity: 0.55"/>
    </g>
    <g clip-path="url(#pd29671a1e1)">
     <use xlink:href="#C2_0_9abf1c1c19" x="386.084139" y="264.064526" style="fill: #ffffff; fill-opacity: 0.55"/>
    </g>
    <g clip-path="url(#pd29671a1e1)">
     <use xlink:href="#C2_0_9abf1c1c19" x="386.084139" y="267.979745" style="fill: #ffffff; fill-opacity: 0.55"/>
    </g>
    <g clip-path="url(#pd29671a1e1)">
     <use xlink:href="#C2_0_9abf1c1c19" x="386.084139" y="268.262456" style="fill: #ffffff; fill-opacity: 0.55"/>
    </g>
   </g>
   <g id="PathCollection_4">
    <defs>
     <path id="C3_0_d7c8ef7ce0" d="M 0 1.581139 
C 0.419323 1.581139 0.821528 1.41454 1.118034 1.118034 
C 1.41454 0.821528 1.581139 0.419323 1.581139 -0 
C 1.581139 -0.419323 1.41454 -0.821528 1.118034 -1.118034 
C 0.821528 -1.41454 0.419323 -1.581139 0 -1.581139 
C -0.419323 -1.581139 -0.821528 -1.41454 -1.118034 -1.118034 
C -1.41454 -0.821528 -1.581139 -0.419323 -1.581139 0 
C -1.581139 0.419323 -1.41454 0.821528 -1.118034 1.118034 
C -0.821528 1.41454 -0.419323 1.581139 0 1.581139 
z
"/>
    </defs>
    <g clip-path="url(#pd29671a1e1)">
     <use xlink:href="#C3_0_d7c8ef7ce0" x="528.966564" y="267.691459" style="fill: #ffffff; fill-opacity: 0.55"/>
    </g>
    <g clip-path="url(#pd29671a1e1)">
     <use xlink:href="#C3_0_d7c8ef7ce0" x="528.966564" y="265.270215" style="fill: #ffffff; fill-opacity: 0.55"/>
    </g>
    <g clip-path="url(#pd29671a1e1)">
     <use xlink:href="#C3_0_d7c8ef7ce0" x="528.966564" y="269.563897" style="fill: #ffffff; fill-opacity: 0.55"/>
    </g>
    <g clip-path="url(#pd29671a1e1)">
     <use xlink:href="#C3_0_d7c8ef7ce0" x="528.966564" y="270.132007" style="fill: #ffffff; fill-opacity: 0.55"/>
    </g>
   </g>
   <g id="PathCollection_5">
    <defs>
     <path id="C4_0_3be3e840fb" d="M 0 1.581139 
C 0.419323 1.581139 0.821528 1.41454 1.118034 1.118034 
C 1.41454 0.821528 1.581139 0.419323 1.581139 -0 
C 1.581139 -0.419323 1.41454 -0.821528 1.118034 -1.118034 
C 0.821528 -1.41454 0.419323 -1.581139 0 -1.581139 
C -0.419323 -1.581139 -0.821528 -1.41454 -1.118034 -1.118034 
C -1.41454 -0.821528 -1.581139 -0.419323 -1.581139 0 
C -1.581139 0.419323 -1.41454 0.821528 -1.118034 1.118034 
C -0.821528 1.41454 -0.419323 1.581139 0 1.581139 
z
"/>
    </defs>
    <g clip-path="url(#pd29671a1e1)">
     <use xlink:href="#C4_0_3be3e840fb" x="156.043436" y="231.396822" style="fill: #ffffff; fill-opacity: 0.55"/>
    </g>
    <g clip-path="url(#pd29671a1e1)">
     <use xlink:href="#C4_0_3be3e840fb" x="156.043436" y="227.508632" style="fill: #ffffff; fill-opacity: 0.55"/>
    </g>
    <g clip-path="url(#pd29671a1e1)">
     <use xlink:href="#C4_0_3be3e840fb" x="156.043436" y="238.424414" style="fill: #ffffff; fill-opacity: 0.55"/>
    </g>
    <g clip-path="url(#pd29671a1e1)">
     <use xlink:href="#C4_0_3be3e840fb" x="156.043436" y="235.272717" style="fill: #ffffff; fill-opacity: 0.55"/>
    </g>
   </g>
   <g id="PathCollection_6">
    <defs>
     <path id="C5_0_b82002c835" d="M 0 1.581139 
C 0.419323 1.581139 0.821528 1.41454 1.118034 1.118034 
C 1.41454 0.821528 1.581139 0.419323 1.581139 -0 
C 1.581139 -0.419323 1.41454 -0.821528 1.118034 -1.118034 
C 0.821528 -1.41454 0.419323 -1.581139 0 -1.581139 
C -0.419323 -1.581139 -0.821528 -1.41454 -1.118034 -1.118034 
C -1.41454 -0.821528 -1.581139 -0.419323 -1.581139 0 
C -1.581139 0.419323 -1.41454 0.821528 -1.118034 1.118034 
C -0.821528 1.41454 -0.419323 1.581139 0 1.581139 
z
"/>
    </defs>
    <g clip-path="url(#pd29671a1e1)">
     <use xlink:href="#C5_0_b82002c835" x="298.925861" y="103.720463" style="fill: #ffffff; fill-opacity: 0.55"/>
    </g>
    <g clip-path="url(#pd29671a1e1)">
     <use xlink:href="#C5_0_b82002c835" x="298.925861" y="102.946383" style="fill: #ffffff; fill-opacity: 0.55"/>
    </g>
    <g clip-path="url(#pd29671a1e1)">
     <use xlink:href="#C5_0_b82002c835" x="298.925861" y="148.672648" style="fill: #ffffff; fill-opacity: 0.55"/>
    </g>
    <g clip-path="url(#pd29671a1e1)">
     <use xlink:href="#C5_0_b82002c835" x="298.925861" y="156.163484" style="fill: #ffffff; fill-opacity: 0.55"/>
    </g>
   </g>
   <g id="PathCollection_7">
    <defs>
     <path id="C6_0_b8afe1142b" d="M 0 1.581139 
C 0.419323 1.581139 0.821528 1.41454 1.118034 1.118034 
C 1.41454 0.821528 1.581139 0.419323 1.581139 -0 
C 1.581139 -0.419323 1.41454 -0.821528 1.118034 -1.118034 
C 0.821528 -1.41454 0.419323 -1.581139 0 -1.581139 
C -0.419323 -1.581139 -0.821528 -1.41454 -1.118034 -1.118034 
C -1.41454 -0.821528 -1.581139 -0.419323 -1.581139 0 
C -1.581139 0.419323 -1.41454 0.821528 -1.118034 1.118034 
C -0.821528 1.41454 -0.419323 1.581139 0 1.581139 
z
"/>
    </defs>
    <g clip-path="url(#pd29671a1e1)">
     <use xlink:href="#C6_0_b8afe1142b" x="441.808285" y="145.025973" style="fill: #ffffff; fill-opacity: 0.55"/>
    </g>
    <g clip-path="url(#pd29671a1e1)">
     <use xlink:href="#C6_0_b8afe1142b" x="441.808285" y="147.242854" style="fill: #ffffff; fill-opacity: 0.55"/>
    </g>
    <g clip-path="url(#pd29671a1e1)">
     <use xlink:href="#C6_0_b8afe1142b" x="441.808285" y="129.682703" style="fill: #ffffff; fill-opacity: 0.55"/>
    </g>
    <g clip-path="url(#pd29671a1e1)">
     <use xlink:href="#C6_0_b8afe1142b" x="441.808285" y="133.51781" style="fill: #ffffff; fill-opacity: 0.55"/>
    </g>
   </g>
   <g id="PathCollection_8">
    <defs>
     <path id="C7_0_a06017969c" d="M 0 1.581139 
C 0.419323 1.581139 0.821528 1.41454 1.118034 1.118034 
C 1.41454 0.821528 1.581139 0.419323 1.581139 -0 
C 1.581139 -0.419323 1.41454 -0.821528 1.118034 -1.118034 
C 0.821528 -1.41454 0.419323 -1.581139 0 -1.581139 
C -0.419323 -1.581139 -0.821528 -1.41454 -1.118034 -1.118034 
C -1.41454 -0.821528 -1.581139 -0.419323 -1.581139 0 
C -1.581139 0.419323 -1.41454 0.821528 -1.118034 1.118034 
C -0.821528 1.41454 -0.419323 1.581139 0 1.581139 
z
"/>
    </defs>
    <g clip-path="url(#pd29671a1e1)">
     <use xlink:href="#C7_0_a06017969c" x="584.690709" y="107.690837" style="fill: #ffffff; fill-opacity: 0.55"/>
    </g>
    <g clip-path="url(#pd29671a1e1)">
     <use xlink:href="#C7_0_a06017969c" x="584.690709" y="124.808724" style="fill: #ffffff; fill-opacity: 0.55"/>
    </g>
    <g clip-path="url(#pd29671a1e1)">
     <use xlink:href="#C7_0_a06017969c" x="584.690709" y="139.220551" style="fill: #ffffff; fill-opacity: 0.55"/>
    </g>
    <g clip-path="url(#pd29671a1e1)">
     <use xlink:href="#C7_0_a06017969c" x="584.690709" y="147.671158" style="fill: #ffffff; fill-opacity: 0.55"/>
    </g>
   </g>
   <g id="legend_1">
    <g id="patch_13">
     <path d="M 55.91 59.818594 
L 73.91 59.818594 
L 73.91 53.518594 
L 55.91 53.518594 
z
" style="fill: #d95926"/>
    </g>
    <g id="text_24">
     <text style="font-size: 9px; font-family: 'Helvetica Neue', 'Helvetica', 'Arial', 'DejaVu Sans'; text-anchor: start; fill: #ffffff" x="81.11" y="59.818594" transform="rotate(-0 81.11 59.818594)">Rust (kube-rs)</text>
    </g>
    <g id="patch_14">
     <path d="M 162.282969 59.818594 
L 180.282969 59.818594 
L 180.282969 53.518594 
L 162.282969 53.518594 
z
" style="fill: #3987e5"/>
    </g>
    <g id="text_25">
     <text style="font-size: 9px; font-family: 'Helvetica Neue', 'Helvetica', 'Arial', 'DejaVu Sans'; text-anchor: start; fill: #ffffff" x="187.482969" y="59.818594" transform="rotate(-0 187.482969 59.818594)">Go (client-go)</text>
    </g>
   </g>
  </g>
 </g>
 <defs>
  <clipPath id="pd29671a1e1">
   <rect x="47.81" y="44.88" width="589.39" height="246.776"/>
  </clipPath>
 </defs>
</svg>
